<svg width="1215" height="503" viewBox="0 0 1215 503" fill="none" xmlns="http://www.w3.org/2000/svg">
<path d="M80.2445 461.196H1207.11M92.8835 473.619V413.125M92.8835 23.6985V413.125M92.8835 413.125H79.1455M92.8835 363.434H79.1455M92.8835 315.903H79.1455M92.8835 266.753H79.1455M92.8835 218.142H79.1455M92.8835 170.071H79.1455M92.8835 122H79.1455M92.8835 73.3895H79.1455" stroke="black" stroke-width="2.03214"/>
<rect x="115.073" y="403.241" width="45.861" height="59.163" fill="#011C37"/>
<rect x="330.636" y="383.52" width="45.861" height="78.8841" fill="#011C37"/>
<rect x="534.04" y="363.799" width="45.861" height="98.6051" fill="#011C37"/>
<rect x="743.492" y="179.266" width="45.861" height="283.137" fill="#011C37"/>
<rect x="952.732" y="187.718" width="45.861" height="274.686" fill="#011C37"/>
<rect x="1161.97" y="52.4885" width="45.861" height="409.915" fill="#011C37"/>
<path d="M1179.17 363.799L971.364 289.845L759.973 363.799L563.631 327.878L352.957 265.194L136.551 114.469" stroke="#C2B49C" stroke-width="5.08035"/>
<ellipse cx="1184.9" cy="358.164" rx="30.0963" ry="29.5815" fill="#C2B49C"/>
<ellipse cx="975.662" cy="291.958" rx="30.0963" ry="29.5815" fill="#C2B49C"/>
<ellipse cx="764.989" cy="363.799" rx="30.0963" ry="29.5815" fill="#C2B49C"/>
<ellipse cx="556.398" cy="328.583" rx="30.0963" ry="29.5815" fill="#C2B49C"/>
<ellipse cx="352.994" cy="262.376" rx="30.0963" ry="29.5815" fill="#C2B49C"/>
<ellipse cx="137.431" cy="114.468" rx="30.0963" ry="29.5815" fill="#C2B49C"/>
<path d="M184.542 117.905L186.9 115.406C188.363 113.861 189.745 112.317 189.745 110.305C189.745 107.928 187.875 106.139 185.294 106.139C182.47 106.139 180.783 108.293 180.783 110.427C180.783 110.752 180.824 111.199 180.925 111.585H183.1C183.039 111.22 182.998 110.813 182.998 110.549C182.998 109.208 183.872 108.11 185.274 108.11C186.676 108.11 187.509 109.167 187.509 110.468C187.509 111.667 186.737 112.703 185.376 114.146L180.6 119.287V119.775H190.212V117.905H184.542ZM197.086 111.26C196.477 111.26 195.908 111.321 195.379 111.443V108.293H200.907V106.363H193.266V113.109H196.355C198.346 113.109 199.443 113.963 199.443 115.487C199.443 117.052 198.224 118.027 196.659 118.027C195.115 118.027 194.14 117.174 193.408 116.036L191.904 117.113C192.758 118.718 194.383 119.998 196.72 119.998C199.362 119.998 201.658 118.23 201.658 115.446C201.658 112.642 199.403 111.26 197.086 111.26ZM219.396 115.589H217.567V111.463H215.413V115.589H211.41L215.21 106.363H212.995L208.707 116.849V117.438H215.413V119.775H217.567V117.438H219.396V115.589ZM225.747 110.874C225.544 110.874 225.341 110.894 225.158 110.935L228.389 106.363H225.849L222.496 111.098C221.48 112.561 220.667 113.658 220.667 115.345C220.667 118.048 222.821 119.998 225.402 119.998C227.983 119.998 230.157 118.027 230.157 115.365C230.157 112.764 228.064 110.874 225.747 110.874ZM225.402 118.027C223.918 118.027 222.78 116.889 222.78 115.365C222.78 113.861 223.918 112.703 225.402 112.703C226.865 112.703 228.023 113.841 228.023 115.365C228.023 116.889 226.865 118.027 225.402 118.027ZM236.836 111.26C236.226 111.26 235.657 111.321 235.129 111.443V108.293H240.656V106.363H233.016V113.109H236.104C238.096 113.109 239.193 113.963 239.193 115.487C239.193 117.052 237.974 118.027 236.409 118.027C234.865 118.027 233.889 117.174 233.158 116.036L231.654 117.113C232.507 118.718 234.133 119.998 236.47 119.998C239.112 119.998 241.408 118.23 241.408 115.446C241.408 112.642 239.153 111.26 236.836 111.26ZM243.96 123.392H245.688L246.643 117.621H244.164L243.96 123.392ZM259.345 115.589H257.516V111.463H255.362V115.589H251.358L255.158 106.363H252.943L248.656 116.849V117.438H255.362V119.775H257.516V117.438H259.345V115.589ZM266.183 111.342L269.435 106.952V106.363H261.083V108.334H266.082L262.952 112.54V113.13H264.436C266.427 113.13 267.524 113.983 267.524 115.487C267.524 117.032 266.366 118.027 264.781 118.027C263.298 118.027 262.363 117.153 261.631 116.036L260.127 117.092C260.961 118.698 262.566 119.998 264.842 119.998C267.463 119.998 269.739 118.23 269.739 115.467C269.739 113.028 267.992 111.646 266.183 111.342ZM278.462 119.775H280.616V117.357H285.88V115.568H280.616V114.004H283.278C285.758 114.004 287.485 112.5 287.485 110.183C287.485 107.846 285.778 106.363 283.278 106.363H278.462V112.154H276.837V114.004H278.462V115.568H276.837V117.357H278.462V119.775ZM280.616 112.154V108.212H283.177C284.538 108.212 285.351 109.005 285.351 110.204C285.351 111.402 284.518 112.154 283.177 112.154H280.616Z" fill="black"/>
<path d="M59.2575 463.206C62.7934 463.206 64.3582 459.995 64.3582 456.154C64.3582 452.273 62.7528 449.347 59.2575 449.347C55.7622 449.347 54.1365 452.273 54.1365 456.154C54.1365 459.995 55.7013 463.206 59.2575 463.206ZM59.2575 461.235C57.1847 461.235 56.3719 459.182 56.3719 456.175C56.3719 453.208 57.1847 451.318 59.2575 451.318C61.31 451.318 62.1228 453.208 62.1228 456.175C62.1228 459.182 61.31 461.235 59.2575 461.235Z" fill="black"/>
<path d="M59.916 405.827C59.3063 405.827 58.7373 405.888 58.209 406.01V402.86H63.7364V400.93H56.0956V407.677H59.1844C61.1759 407.677 62.2733 408.53 62.2733 410.054C62.2733 411.619 61.054 412.594 59.4892 412.594C57.9448 412.594 56.9694 411.741 56.2378 410.603L54.734 411.68C55.5875 413.285 57.2132 414.566 59.5502 414.566C62.192 414.566 64.4883 412.798 64.4883 410.014C64.4883 407.209 62.2326 405.827 59.916 405.827Z" fill="black"/>
<path d="M49.6572 352.29L45.0036 353.814L45.5319 355.704L48.255 354.83V365.702H50.4091V352.29H49.6572ZM58.7947 365.925C62.3306 365.925 63.8953 362.715 63.8953 358.874C63.8953 354.993 62.29 352.066 58.7947 352.066C55.2994 352.066 53.6737 354.993 53.6737 358.874C53.6737 362.715 55.2384 365.925 58.7947 365.925ZM58.7947 363.954C56.7219 363.954 55.909 361.902 55.909 358.894C55.909 355.927 56.7219 354.037 58.7947 354.037C60.8471 354.037 61.66 355.927 61.66 358.894C61.66 361.902 60.8471 363.954 58.7947 363.954Z" fill="black"/>
<path d="M51.4374 303.65L46.7838 305.174L47.3122 307.064L50.0352 306.19V317.062H52.1893V303.65H51.4374ZM60.0059 308.547C59.3962 308.547 58.8273 308.608 58.2989 308.73V305.58H63.8263V303.65H56.1855V310.397H59.2743C61.2658 310.397 62.3632 311.25 62.3632 312.774C62.3632 314.339 61.1439 315.314 59.5791 315.314C58.0347 315.314 57.0593 314.461 56.3277 313.323L54.8239 314.4C55.6774 316.005 57.3031 317.286 59.6401 317.286C62.2819 317.286 64.5782 315.518 64.5782 312.734C64.5782 309.929 62.3225 308.547 60.0059 308.547Z" fill="black"/>
<path d="M45.8794 266.553L48.2367 264.053C49.6998 262.509 51.0817 260.964 51.0817 258.952C51.0817 256.575 49.2121 254.786 46.6313 254.786C43.8066 254.786 42.1199 256.941 42.1199 259.074C42.1199 259.399 42.1606 259.846 42.2622 260.233H44.4366C44.3756 259.867 44.335 259.46 44.335 259.196C44.335 257.855 45.2088 256.758 46.611 256.758C48.0131 256.758 48.8463 257.814 48.8463 259.115C48.8463 260.314 48.0741 261.35 46.7126 262.793L41.937 267.934V268.422H51.5491V266.553H45.8794ZM58.9921 268.646C62.528 268.646 64.0928 265.435 64.0928 261.594C64.0928 257.713 62.4874 254.786 58.9921 254.786C55.4968 254.786 53.8711 257.713 53.8711 261.594C53.8711 265.435 55.4358 268.646 58.9921 268.646ZM58.9921 266.674C56.9193 266.674 56.1065 264.622 56.1065 261.614C56.1065 258.648 56.9193 256.758 58.9921 256.758C61.0445 256.758 61.8574 258.648 61.8574 261.614C61.8574 264.622 61.0445 266.674 58.9921 266.674Z" fill="black"/>
<path d="M47.1067 217.912L49.464 215.413C50.9272 213.868 52.309 212.324 52.309 210.312C52.309 207.935 50.4395 206.146 47.8586 206.146C45.034 206.146 43.3473 208.3 43.3473 210.434C43.3473 210.759 43.3879 211.206 43.4895 211.592H45.6639C45.603 211.227 45.5623 210.82 45.5623 210.556C45.5623 209.215 46.4361 208.118 47.8383 208.118C49.2405 208.118 50.0737 209.174 50.0737 210.475C50.0737 211.674 49.3015 212.71 47.9399 214.153L43.1644 219.294V219.782H52.7764V217.912H47.1067ZM59.6504 211.267C59.0408 211.267 58.4718 211.328 57.9434 211.45V208.3H63.4709V206.37H55.83V213.117H58.9189C60.9104 213.117 62.0077 213.97 62.0077 215.494C62.0077 217.059 60.7884 218.034 59.2237 218.034C57.6793 218.034 56.7038 217.181 55.9723 216.043L54.4685 217.12C55.322 218.725 56.9477 220.006 59.2847 220.006C61.9264 220.006 64.2228 218.238 64.2228 215.454C64.2228 212.649 61.9671 211.267 59.6504 211.267Z" fill="black"/>
<path d="M47.7825 162.708L51.0339 158.319V157.73H42.6818V159.701H47.6809L44.5514 163.907V164.497H46.0348C48.0263 164.497 49.1237 165.35 49.1237 166.854C49.1237 168.398 47.9654 169.394 46.3803 169.394C44.8968 169.394 43.962 168.52 43.2305 167.403L41.7267 168.459C42.5599 170.065 44.1653 171.365 46.4412 171.365C49.0627 171.365 51.3387 169.597 51.3387 166.834C51.3387 164.395 49.5911 163.013 47.7825 162.708ZM58.6944 171.365C62.2303 171.365 63.7951 168.155 63.7951 164.314C63.7951 160.432 62.1897 157.506 58.6944 157.506C55.1991 157.506 53.5734 160.432 53.5734 164.314C53.5734 168.155 55.1382 171.365 58.6944 171.365ZM58.6944 169.394C56.6216 169.394 55.8088 167.342 55.8088 164.334C55.8088 161.367 56.6216 159.477 58.6944 159.477C60.7469 159.477 61.5597 161.367 61.5597 164.334C61.5597 167.342 60.7469 169.394 58.6944 169.394Z" fill="black"/>
<path d="M49.0098 114.069L52.2612 109.679V109.09H43.9091V111.061H48.9082L45.7787 115.268V115.857H47.2622C49.2537 115.857 50.351 116.71 50.351 118.214C50.351 119.759 49.1927 120.754 47.6076 120.754C46.1242 120.754 45.1894 119.88 44.4578 118.763L42.954 119.82C43.7872 121.425 45.3926 122.725 47.6686 122.725C50.2901 122.725 52.5661 120.958 52.5661 118.194C52.5661 115.755 50.8184 114.373 49.0098 114.069ZM59.3528 113.987C58.7431 113.987 58.1741 114.048 57.6458 114.17V111.02H63.1732V109.09H55.5323V115.837H58.6212C60.6127 115.837 61.71 116.69 61.71 118.214C61.71 119.779 60.4908 120.754 58.926 120.754C57.3816 120.754 56.4062 119.901 55.6746 118.763L54.1708 119.84C55.0243 121.445 56.65 122.725 58.987 122.725C61.6288 122.725 63.9251 120.958 63.9251 118.173C63.9251 115.369 61.6694 113.987 59.3528 113.987Z" fill="black"/>
<path d="M52.1662 69.6761H50.3373V65.5509H48.1833V69.6761H44.1799L47.98 60.4502H45.765L41.4772 70.936V71.5253H48.1833V73.8623H50.3373V71.5253H52.1662V69.6761ZM58.8829 74.0858C62.4189 74.0858 63.9836 70.8751 63.9836 67.0343C63.9836 63.1529 62.3782 60.2267 58.8829 60.2267C55.3877 60.2267 53.7619 63.1529 53.7619 67.0343C53.7619 70.8751 55.3267 74.0858 58.8829 74.0858ZM58.8829 72.1147C56.8102 72.1147 55.9973 70.0622 55.9973 67.0546C55.9973 64.0877 56.8102 62.1978 58.8829 62.1978C60.9354 62.1978 61.7483 64.0877 61.7483 67.0546C61.7483 70.0622 60.9354 72.1147 58.8829 72.1147Z" fill="black"/>
<path d="M12.9768 19.8653H15.07V15.0695H13.3833V3.58788H11.2292V15.0695H4.72636V3.58788H2.5723V17H12.9768V19.8653ZM26.1013 11.371C26.1013 8.74952 24.1504 6.79866 21.4883 6.79866C18.5824 6.79866 16.3267 9.09498 16.3267 12.0213C16.3267 14.9679 18.6027 17.2235 21.6915 17.2235C23.2766 17.2235 24.6178 16.6139 25.6745 15.6181L24.6585 14.155C23.8253 14.8866 22.9108 15.3336 21.7525 15.3336C20.0455 15.3336 18.7856 14.3582 18.5011 12.7122H25.9387C25.9997 12.448 26.1013 11.9197 26.1013 11.371ZM21.407 8.60727C22.7686 8.60727 23.9269 9.48109 23.9675 11.0458H18.5417C18.8669 9.56237 20.0049 8.60727 21.407 8.60727ZM29.3794 7.0222L29.3387 9.52173C29.2778 13.3421 28.8713 15.2524 27.6317 15.2524C27.4895 15.2524 27.3472 15.232 27.2253 15.2117V17C27.3879 17.061 27.6927 17.1219 27.9975 17.1219C30.4361 17.1219 31.2286 14.8459 31.3506 9.86719L31.3709 8.87144H34.5817V17H36.7154V7.0222H29.3794ZM48.9629 11.371C48.9629 8.74952 47.012 6.79866 44.3499 6.79866C41.4439 6.79866 39.1883 9.09498 39.1883 12.0213C39.1883 14.9679 41.4643 17.2235 44.5531 17.2235C46.1382 17.2235 47.4794 16.6139 48.5361 15.6181L47.52 14.155C46.6869 14.8866 45.7724 15.3336 44.6141 15.3336C42.9071 15.3336 41.6472 14.3582 41.3627 12.7122H48.8003C48.8612 12.448 48.9629 11.9197 48.9629 11.371ZM44.2686 8.60727C45.6301 8.60727 46.7885 9.48109 46.8291 11.0458H41.4033C41.7284 9.56237 42.8664 8.60727 44.2686 8.60727ZM58.2561 11.6148C58.8454 11.1881 59.1705 10.4972 59.1705 9.74526C59.1705 8.07891 57.7887 7.0222 55.8175 7.0222H51.4281V17H56.4068C58.5406 17 59.9631 15.7401 59.9631 13.9721C59.9631 12.8138 59.2925 12.0213 58.2561 11.6148ZM53.5212 8.74952H55.7362C56.6913 8.74952 57.1587 9.13562 57.1587 9.86719C57.1587 10.5988 56.6913 11.0052 55.7362 11.0052H53.5212V8.74952ZM56.2036 15.293H53.5212V12.6512H56.2036C57.2807 12.6512 57.9309 13.1389 57.9309 13.9315C57.9309 14.724 57.3213 15.293 56.2036 15.293ZM62.581 17H66.8282C69.1245 17 70.7502 15.6994 70.7502 13.586C70.7502 11.4726 69.1245 10.1923 66.8282 10.1923H64.7351V7.0222H62.581V17ZM72.0305 17H74.1642V7.0222H72.0305V17ZM64.7351 15.1508V12.0416H66.7266C67.8849 12.0416 68.5759 12.6106 68.5759 13.6063C68.5759 14.6224 67.9052 15.1508 66.7469 15.1508H64.7351ZM86.4304 11.371C86.4304 8.74952 84.4796 6.79866 81.8175 6.79866C78.9115 6.79866 76.6558 9.09498 76.6558 12.0213C76.6558 14.9679 78.9318 17.2235 82.0207 17.2235C83.6057 17.2235 84.947 16.6139 86.0037 15.6181L84.9876 14.155C84.1544 14.8866 83.24 15.3336 82.0816 15.3336C80.3746 15.3336 79.1147 14.3582 78.8302 12.7122H86.2678C86.3288 12.448 86.4304 11.9197 86.4304 11.371ZM81.7362 8.60727C83.0977 8.60727 84.256 9.48109 84.2967 11.0458H78.8709C79.196 9.56237 80.334 8.60727 81.7362 8.60727ZM26.7546 33.7368C27.4658 33.249 27.8316 32.4972 27.8316 31.6233C27.8316 29.8351 26.4904 28.7987 24.3363 28.7987C22.6294 28.7987 21.3085 29.5099 20.4956 30.526L21.7962 31.8062C22.3449 31.1966 23.0358 30.6886 24.2347 30.6886C25.2102 30.6886 25.7385 31.1356 25.7385 31.8062C25.7385 32.4972 25.2508 32.9442 24.316 32.9442H23.2187V34.6512H24.377C25.576 34.6512 26.1856 35.1796 26.1856 35.9518C26.1856 36.785 25.515 37.3336 24.2754 37.3336C22.9951 37.3336 22.2026 36.7646 21.6133 36.0534L20.3127 37.3336C21.2475 38.5529 22.5887 39.2235 24.377 39.2235C26.8156 39.2235 28.299 38.0652 28.299 36.094C28.299 35.0983 27.7707 34.2245 26.7546 33.7368ZM37.637 33.6148C38.2263 33.1881 38.5515 32.4972 38.5515 31.7453C38.5515 30.0789 37.1696 29.0222 35.1984 29.0222H30.809V39H35.7878C37.9215 39 39.344 37.7401 39.344 35.9721C39.344 34.8138 38.6734 34.0213 37.637 33.6148ZM32.9021 30.7495H35.1172C36.0723 30.7495 36.5397 31.1356 36.5397 31.8672C36.5397 32.5988 36.0723 33.0052 35.1172 33.0052H32.9021V30.7495ZM35.5846 37.293H32.9021V34.6512H35.5846C36.6616 34.6512 37.3119 35.1389 37.3119 35.9315C37.3119 36.724 36.7022 37.293 35.5846 37.293ZM46.5749 39.2235C49.5419 39.2235 51.8788 36.9069 51.8788 34.0009C51.8788 31.095 49.5419 28.7987 46.5749 28.7987C43.6283 28.7987 41.3117 31.0747 41.3117 34.0009C41.3117 36.9069 43.6283 39.2235 46.5749 39.2235ZM46.5749 37.2524C44.807 37.2524 43.4861 35.8705 43.4861 34.0213C43.4861 32.1517 44.807 30.7495 46.5953 30.7495C48.3429 30.7495 49.6841 32.1517 49.6841 34.0213C49.6841 35.8502 48.3429 37.2524 46.5749 37.2524ZM54.3453 39H56.4994V34.6919H60.7872V39H62.921V29.0222H60.7872V32.8426H56.4994V29.0222H54.3453V39ZM66.0539 39H68.208V29.0222H66.0539V39ZM70.8091 33.5742L74.8125 29.0222H72.2926L68.2893 33.6555L72.5974 39H75.1986L70.8091 33.5742ZM85.0344 28.7987L79.2022 35.2609V29.0222H77.0481V39.2235H77.8L83.6119 32.802V39H85.766V28.7987H85.0344Z" fill="black"/>
<path d="M397.148 242.516L392.495 244.04L393.023 245.93L395.746 245.056V255.928H397.9V242.516H397.148ZM405.717 247.414C405.107 247.414 404.538 247.475 404.01 247.596V244.447H409.537V242.516H401.896V249.263H404.985C406.977 249.263 408.074 250.116 408.074 251.64C408.074 253.205 406.855 254.181 405.29 254.181C403.746 254.181 402.77 253.327 402.039 252.189L400.535 253.266C401.388 254.872 403.014 256.152 405.351 256.152C407.993 256.152 410.289 254.384 410.289 251.6C410.289 248.795 408.033 247.414 405.717 247.414ZM424.857 248.958C426.3 248.206 427.133 247.19 427.133 245.727C427.133 243.492 425.243 242.293 422.906 242.293C420.528 242.293 418.638 243.492 418.638 245.727C418.638 247.231 419.533 248.226 420.914 248.958C419.248 249.568 418.008 250.645 418.008 252.433C418.008 254.689 420.02 256.152 422.906 256.152C425.771 256.152 427.763 254.689 427.763 252.433C427.763 250.604 426.442 249.547 424.857 248.958ZM422.906 244.061C424.125 244.061 425.08 244.69 425.08 245.808C425.08 246.885 424.227 247.414 422.886 247.983C421.544 247.393 420.691 246.865 420.691 245.808C420.691 244.69 421.646 244.061 422.906 244.061ZM422.906 254.363C421.118 254.363 420.183 253.53 420.183 252.352C420.183 251.051 421.341 250.441 422.886 249.893C424.43 250.441 425.588 251.031 425.588 252.352C425.588 253.53 424.674 254.363 422.906 254.363ZM433.697 254.059L436.054 251.559C437.517 250.015 438.899 248.47 438.899 246.458C438.899 244.081 437.029 242.293 434.449 242.293C431.624 242.293 429.937 244.447 429.937 246.58C429.937 246.906 429.978 247.353 430.08 247.739H432.254C432.193 247.373 432.152 246.966 432.152 246.702C432.152 245.361 433.026 244.264 434.428 244.264C435.83 244.264 436.664 245.32 436.664 246.621C436.664 247.82 435.891 248.856 434.53 250.299L429.754 255.441V255.928H439.366V254.059H433.697ZM446.24 247.414C445.631 247.414 445.062 247.475 444.533 247.596V244.447H450.061V242.516H442.42V249.263H445.509C447.5 249.263 448.598 250.116 448.598 251.64C448.598 253.205 447.378 254.181 445.814 254.181C444.269 254.181 443.294 253.327 442.562 252.189L441.058 253.266C441.912 254.872 443.538 256.152 445.875 256.152C448.516 256.152 450.813 254.384 450.813 251.6C450.813 248.795 448.557 247.414 446.24 247.414ZM459.528 255.928H461.682V253.51H466.945V251.722H461.682V250.157H464.344C466.823 250.157 468.551 248.653 468.551 246.337C468.551 244 466.844 242.516 464.344 242.516H459.528V248.308H457.902V250.157H459.528V251.722H457.902V253.51H459.528V255.928ZM461.682 248.308V244.365H464.242C465.604 244.365 466.417 245.158 466.417 246.357C466.417 247.556 465.584 248.308 464.242 248.308H461.682Z" fill="black"/>
<path d="M600.977 307.544L596.323 309.069L596.852 310.958L599.575 310.085V320.957H601.729V307.544H600.977ZM608.895 307.544L604.242 309.069L604.77 310.958L607.493 310.085V320.957H609.647V307.544H608.895ZM622.509 307.544L617.855 309.069L618.384 310.958L621.107 310.085V320.957H623.261V307.544H622.509ZM631.768 312.523L635.02 308.134V307.544H626.668V309.516H631.667L628.537 313.722V314.311H630.021C632.012 314.311 633.11 315.165 633.11 316.669C633.11 318.213 631.951 319.209 630.366 319.209C628.883 319.209 627.948 318.335 627.216 317.217L625.713 318.274C626.546 319.88 628.151 321.18 630.427 321.18C633.049 321.18 635.325 319.412 635.325 316.648C635.325 314.21 633.577 312.828 631.768 312.523ZM641.461 307.544L636.807 309.069L637.336 310.958L640.059 310.085V320.957H642.213V307.544H641.461ZM651.966 320.957H654.12V318.538H659.383V316.75H654.12V315.185H656.782C659.261 315.185 660.988 313.681 660.988 311.365C660.988 309.028 659.281 307.544 656.782 307.544H651.966V313.336H650.34V315.185H651.966V316.75H650.34V318.538H651.966V320.957ZM654.12 313.336V309.394H656.68C658.042 309.394 658.855 310.186 658.855 311.385C658.855 312.584 658.021 313.336 656.68 313.336H654.12Z" fill="black"/>
<path d="M670.656 367.269C668.075 367.269 665.901 369.24 665.901 371.902C665.901 374.504 667.994 376.393 670.29 376.393C670.493 376.393 670.696 376.373 670.879 376.332L667.648 380.905H670.209L673.541 376.17C674.578 374.707 675.391 373.609 675.391 371.923C675.391 369.22 673.216 367.269 670.656 367.269ZM670.656 374.565C669.172 374.565 668.014 373.427 668.014 371.902C668.014 370.378 669.172 369.24 670.656 369.24C672.119 369.24 673.257 370.378 673.257 371.902C673.257 373.406 672.119 374.565 670.656 374.565ZM688.456 372.471L691.708 368.082V367.493H683.355V369.464H688.354L685.225 373.67V374.26H686.708C688.7 374.26 689.797 375.113 689.797 376.617C689.797 378.161 688.639 379.157 687.054 379.157C685.57 379.157 684.636 378.283 683.904 377.166L682.4 378.222C683.233 379.828 684.839 381.128 687.115 381.128C689.736 381.128 692.012 379.36 692.012 376.597C692.012 374.158 690.265 372.776 688.456 372.471ZM699.368 381.128C702.904 381.128 704.469 377.918 704.469 374.077C704.469 370.195 702.863 367.269 699.368 367.269C695.873 367.269 694.247 370.195 694.247 374.077C694.247 377.918 695.812 381.128 699.368 381.128ZM699.368 379.157C697.295 379.157 696.482 377.105 696.482 374.097C696.482 371.13 697.295 369.24 699.368 369.24C701.421 369.24 702.233 371.13 702.233 374.097C702.233 377.105 701.421 379.157 699.368 379.157ZM710.585 379.035L712.943 376.536C714.406 374.991 715.788 373.447 715.788 371.435C715.788 369.057 713.918 367.269 711.337 367.269C708.513 367.269 706.826 369.423 706.826 371.557C706.826 371.882 706.867 372.329 706.968 372.715H709.143C709.082 372.349 709.041 371.943 709.041 371.679C709.041 370.338 709.915 369.24 711.317 369.24C712.719 369.24 713.552 370.297 713.552 371.598C713.552 372.797 712.78 373.833 711.419 375.276L706.643 380.417V380.905H716.255V379.035H710.585ZM725.065 380.905H727.219V378.487H732.483V376.698H727.219V375.134H729.881C732.361 375.134 734.088 373.63 734.088 371.313C734.088 368.976 732.381 367.493 729.881 367.493H725.065V373.284H723.44V375.134H725.065V376.698H723.44V378.487H725.065V380.905ZM727.219 373.284V369.342H729.78C731.141 369.342 731.954 370.134 731.954 371.333C731.954 372.532 731.121 373.284 729.78 373.284H727.219Z" fill="black"/>
<path d="M871.635 271.982L866.981 273.506L867.509 275.396L870.232 274.522V285.394H872.387V271.982H871.635ZM880.894 276.961L884.145 272.571V271.982H875.793V273.953H880.792L877.663 278.16V278.749H879.146C881.138 278.749 882.235 279.602 882.235 281.106C882.235 282.651 881.077 283.646 879.492 283.646C878.008 283.646 877.074 282.773 876.342 281.655L874.838 282.712C875.671 284.317 877.277 285.618 879.553 285.618C882.174 285.618 884.45 283.85 884.45 281.086C884.45 278.647 882.703 277.265 880.894 276.961ZM899.026 278.424C900.468 277.672 901.302 276.656 901.302 275.193C901.302 272.957 899.412 271.758 897.075 271.758C894.697 271.758 892.807 272.957 892.807 275.193C892.807 276.696 893.701 277.692 895.083 278.424C893.417 279.033 892.177 280.11 892.177 281.899C892.177 284.154 894.189 285.618 897.075 285.618C899.94 285.618 901.932 284.154 901.932 281.899C901.932 280.07 900.611 279.013 899.026 278.424ZM897.075 273.526C898.294 273.526 899.249 274.156 899.249 275.274C899.249 276.351 898.396 276.879 897.054 277.448C895.713 276.859 894.86 276.331 894.86 275.274C894.86 274.156 895.815 273.526 897.075 273.526ZM897.075 283.829C895.287 283.829 894.352 282.996 894.352 281.817C894.352 280.517 895.51 279.907 897.054 279.359C898.599 279.907 899.757 280.497 899.757 281.817C899.757 282.996 898.843 283.829 897.075 283.829ZM908.13 271.982L903.476 273.506L904.005 275.396L906.728 274.522V285.394H908.882V271.982H908.13ZM916.698 276.879C916.089 276.879 915.52 276.94 914.991 277.062V273.912H920.519V271.982H912.878V278.729H915.967C917.958 278.729 919.056 279.582 919.056 281.106C919.056 282.671 917.836 283.646 916.272 283.646C914.727 283.646 913.752 282.793 913.02 281.655L911.516 282.732C912.37 284.337 913.996 285.618 916.333 285.618C918.974 285.618 921.271 283.85 921.271 281.066C921.271 278.261 919.015 276.879 916.698 276.879ZM929.986 285.394H932.14V282.976H937.403V281.188H932.14V279.623H934.802C937.281 279.623 939.008 278.119 939.008 275.802C939.008 273.465 937.301 271.982 934.802 271.982H929.986V277.774H928.36V279.623H929.986V281.188H928.36V282.976H929.986V285.394ZM932.14 277.774V273.831H934.7C936.062 273.831 936.875 274.624 936.875 275.823C936.875 277.022 936.042 277.774 934.7 277.774H932.14Z" fill="black"/>
<path d="M1084.58 364.221C1081.99 364.221 1079.82 366.192 1079.82 368.854C1079.82 371.455 1081.91 373.345 1084.21 373.345C1084.41 373.345 1084.62 373.325 1084.8 373.284L1081.57 377.856H1084.13L1087.46 373.122C1088.5 371.658 1089.31 370.561 1089.31 368.874C1089.31 366.172 1087.14 364.221 1084.58 364.221ZM1084.58 371.516C1083.09 371.516 1081.93 370.378 1081.93 368.854C1081.93 367.33 1083.09 366.192 1084.58 366.192C1086.04 366.192 1087.18 367.33 1087.18 368.854C1087.18 370.358 1086.04 371.516 1084.58 371.516ZM1106.95 373.67H1105.12V369.545H1102.96V373.67H1098.96L1102.76 364.444H1100.55L1096.26 374.93V375.519H1102.96V377.856H1105.12V375.519H1106.95V373.67ZM1112.25 364.444L1107.59 365.968L1108.12 367.858L1110.84 366.985V377.856H1113V364.444H1112.25ZM1126.08 373.67H1124.25V369.545H1122.1V373.67H1118.09L1121.89 364.444H1119.68L1115.39 374.93V375.519H1122.1V377.856H1124.25V375.519H1126.08V373.67ZM1134.16 377.856H1136.32V375.438H1141.58V373.65H1136.32V372.085H1138.98C1141.46 372.085 1143.19 370.581 1143.19 368.265C1143.19 365.928 1141.48 364.444 1138.98 364.444H1134.16V370.236H1132.54V372.085H1134.16V373.65H1132.54V375.438H1134.16V377.856ZM1136.32 370.236V366.294H1138.88C1140.24 366.294 1141.05 367.086 1141.05 368.285C1141.05 369.484 1140.22 370.236 1138.88 370.236H1136.32Z" fill="black"/>
<path d="M115.997 495.04H118.313L112.4 481.404H111.668L105.755 495.04H108.051L109.006 492.805H115.041L115.997 495.04ZM114.269 490.955H109.778L112.034 485.408L114.269 490.955ZM127.155 489.655C127.745 489.228 128.07 488.537 128.07 487.785C128.07 486.119 126.688 485.062 124.717 485.062H120.327V495.04H125.306C127.44 495.04 128.862 493.78 128.862 492.012C128.862 490.854 128.192 490.061 127.155 489.655ZM122.42 486.79H124.635C125.59 486.79 126.058 487.176 126.058 487.907C126.058 488.639 125.59 489.045 124.635 489.045H122.42V486.79ZM125.103 493.333H122.42V490.691H125.103C126.18 490.691 126.83 491.179 126.83 491.972C126.83 492.764 126.22 493.333 125.103 493.333ZM131.48 495.04H133.634V486.911H138.511V485.062H131.48V495.04ZM147.439 485.062L144.493 492.317L141.627 485.062H139.331L143.314 494.593L142.908 495.528C142.379 496.727 141.648 496.991 140.733 496.991C140.408 496.991 140.022 496.95 139.555 496.91V498.718C140.042 498.84 140.652 498.921 141.201 498.921C142.887 498.921 144.025 498.088 144.859 496.178L149.715 485.062H147.439ZM155.899 495.264C157.769 495.264 159.232 494.349 160.106 492.947L158.602 491.789C157.931 492.703 157.098 493.292 155.919 493.292C154.09 493.292 152.79 491.89 152.79 490.041C152.79 488.232 154.09 486.81 155.919 486.81C157.118 486.81 157.952 487.42 158.602 488.334L160.106 487.155C159.252 485.753 157.789 484.839 155.899 484.839C152.952 484.839 150.615 487.115 150.615 490.041C150.615 492.988 152.952 495.264 155.899 495.264ZM164.47 495.04H166.604V486.911H169.814V485.062H161.259V486.911H164.47V495.04Z" fill="black"/>
<path d="M314.339 495.264C316.859 495.264 318.973 494.044 320.09 492.175L318.465 490.976C317.53 492.419 316.148 493.292 314.36 493.292C311.596 493.292 309.523 491.199 309.523 488.334C309.523 485.469 311.596 483.376 314.36 483.376C316.148 483.376 317.53 484.249 318.465 485.692L320.09 484.493C318.952 482.624 316.859 481.404 314.339 481.404C310.417 481.404 307.288 484.412 307.288 488.334C307.288 492.276 310.417 495.264 314.339 495.264ZM331.471 489.411C331.471 486.79 329.52 484.839 326.858 484.839C323.952 484.839 321.696 487.135 321.696 490.061C321.696 493.008 323.972 495.264 327.061 495.264C328.646 495.264 329.988 494.654 331.044 493.658L330.028 492.195C329.195 492.927 328.281 493.374 327.122 493.374C325.415 493.374 324.155 492.398 323.871 490.752H331.308C331.369 490.488 331.471 489.96 331.471 489.411ZM326.777 486.647C328.138 486.647 329.297 487.521 329.337 489.086H323.911C324.237 487.602 325.375 486.647 326.777 486.647ZM333.936 495.04H336.09V490.732H340.378V495.04H342.512V485.062H340.378V488.883H336.09V485.062H333.936V495.04ZM347.636 495.04H349.77V486.911H352.981V485.062H344.426V486.911H347.636V495.04ZM358.37 485.062C356.074 485.062 354.59 486.363 354.59 488.375C354.59 489.817 355.423 490.894 356.826 491.403L353.96 495.04H356.419L359 491.687H360.483V495.04H362.617V485.062H358.37ZM360.483 489.878H358.492C357.435 489.878 356.785 489.309 356.785 488.395C356.785 487.48 357.415 486.911 358.472 486.911H360.483V489.878ZM370.971 485.204C369.446 485.204 368.126 485.895 367.313 487.054C367.333 484.473 367.78 482.705 371.865 482.197C373.572 481.994 374.466 481.75 374.933 481.567V479.575C374.567 479.718 373.653 479.962 371.763 480.246C366.317 481.059 365.301 483.66 365.301 487.867V489.472C365.301 492.927 367.414 495.243 370.564 495.243C373.531 495.243 375.807 493.089 375.807 490.224C375.807 487.42 373.673 485.204 370.971 485.204ZM370.544 493.292C368.857 493.292 367.496 491.931 367.496 490.224C367.496 488.517 368.837 487.176 370.544 487.176C372.271 487.176 373.612 488.517 373.612 490.224C373.612 491.931 372.271 493.292 370.544 493.292ZM383.716 484.839C382.253 484.839 380.973 485.428 380.241 486.464V485.062H378.25V498.698H380.384V493.821C381.156 494.735 382.355 495.264 383.716 495.264C386.561 495.264 388.614 493.028 388.614 490.041C388.614 487.074 386.561 484.839 383.716 484.839ZM383.371 493.313C381.867 493.313 380.363 492.297 380.363 490.041C380.363 487.765 381.887 486.79 383.371 486.79C385.098 486.79 386.419 488.131 386.419 490.061C386.419 491.992 385.078 493.313 383.371 493.313ZM391.09 495.04H395.337C397.654 495.04 399.259 493.739 399.259 491.626C399.259 489.533 397.654 488.232 395.337 488.232H393.244V485.062H391.09V495.04ZM393.244 493.191V490.082H395.236C396.394 490.082 397.085 490.691 397.085 491.646C397.085 492.601 396.414 493.191 395.256 493.191H393.244Z" fill="black"/>
<path d="M523.683 495.264C527.565 495.264 530.735 492.276 530.735 488.334C530.735 484.412 527.565 481.404 523.683 481.404C519.782 481.404 516.652 484.412 516.652 488.334C516.652 492.256 519.761 495.264 523.683 495.264ZM523.704 493.292C520.92 493.292 518.887 491.199 518.887 488.314C518.887 485.469 520.92 483.376 523.704 483.376C526.447 483.376 528.52 485.489 528.52 488.314C528.52 491.199 526.447 493.292 523.704 493.292ZM533.199 495.04H535.353V485.062H533.199V495.04ZM537.954 489.614L541.958 485.062H539.438L535.435 489.696L539.743 495.04H542.344L537.954 489.614ZM546.185 495.04H548.319V486.911H551.529V485.062H542.974V486.911H546.185V495.04ZM556.919 485.062C554.622 485.062 553.139 486.363 553.139 488.375C553.139 489.817 553.972 490.894 555.374 491.403L552.509 495.04H554.968L557.549 491.687H559.032V495.04H561.166V485.062H556.919ZM559.032 489.878H557.041C555.984 489.878 555.334 489.309 555.334 488.395C555.334 487.48 555.963 486.911 557.02 486.911H559.032V489.878ZM569.519 485.204C567.995 485.204 566.674 485.895 565.861 487.054C565.882 484.473 566.329 482.705 570.413 482.197C572.12 481.994 573.014 481.75 573.482 481.567V479.575C573.116 479.718 572.202 479.962 570.312 480.246C564.866 481.059 563.849 483.66 563.849 487.867V489.472C563.849 492.927 565.963 495.243 569.113 495.243C572.08 495.243 574.356 493.089 574.356 490.224C574.356 487.42 572.222 485.204 569.519 485.204ZM569.092 493.292C567.406 493.292 566.044 491.931 566.044 490.224C566.044 488.517 567.385 487.176 569.092 487.176C570.82 487.176 572.161 488.517 572.161 490.224C572.161 491.931 570.82 493.292 569.092 493.292ZM582.265 484.839C580.802 484.839 579.522 485.428 578.79 486.464V485.062H576.798V498.698H578.932V493.821C579.704 494.735 580.903 495.264 582.265 495.264C585.11 495.264 587.162 493.028 587.162 490.041C587.162 487.074 585.11 484.839 582.265 484.839ZM581.919 493.313C580.416 493.313 578.912 492.297 578.912 490.041C578.912 487.765 580.436 486.79 581.919 486.79C583.647 486.79 584.968 488.131 584.968 490.061C584.968 491.992 583.626 493.313 581.919 493.313ZM589.639 495.04H593.886C596.203 495.04 597.808 493.739 597.808 491.626C597.808 489.533 596.203 488.232 593.886 488.232H591.793V485.062H589.639V495.04ZM591.793 493.191V490.082H593.784C594.943 490.082 595.634 490.691 595.634 491.646C595.634 492.601 594.963 493.191 593.805 493.191H591.793Z" fill="black"/>
<path d="M730.626 495.04H732.78V488.903H739.527V495.04H741.681V481.628H739.527V486.972H732.78V481.628H730.626V495.04ZM749.465 495.264C752.432 495.264 754.769 492.947 754.769 490.041C754.769 487.135 752.432 484.839 749.465 484.839C746.518 484.839 744.202 487.115 744.202 490.041C744.202 492.947 746.518 495.264 749.465 495.264ZM749.465 493.292C747.697 493.292 746.376 491.911 746.376 490.061C746.376 488.192 747.697 486.79 749.485 486.79C751.233 486.79 752.574 488.192 752.574 490.061C752.574 491.89 751.233 493.292 749.465 493.292ZM760.514 485.062C758.218 485.062 756.734 486.363 756.734 488.375C756.734 489.817 757.568 490.894 758.97 491.403L756.104 495.04H758.563L761.144 491.687H762.628V495.04H764.761V485.062H760.514ZM762.628 489.878H760.636C759.579 489.878 758.929 489.309 758.929 488.395C758.929 487.48 759.559 486.911 760.616 486.911H762.628V489.878ZM773.115 485.204C771.591 485.204 770.27 485.895 769.457 487.054C769.477 484.473 769.924 482.705 774.009 482.197C775.716 481.994 776.61 481.75 777.077 481.567V479.575C776.712 479.718 775.797 479.962 773.907 480.246C768.461 481.059 767.445 483.66 767.445 487.867V489.472C767.445 492.927 769.558 495.243 772.708 495.243C775.675 495.243 777.951 493.089 777.951 490.224C777.951 487.42 775.817 485.204 773.115 485.204ZM772.688 493.292C771.001 493.292 769.64 491.931 769.64 490.224C769.64 488.517 770.981 487.176 772.688 487.176C774.415 487.176 775.756 488.517 775.756 490.224C775.756 491.931 774.415 493.292 772.688 493.292ZM785.861 484.839C784.397 484.839 783.117 485.428 782.386 486.464V485.062H780.394V498.698H782.528V493.821C783.3 494.735 784.499 495.264 785.861 495.264C788.705 495.264 790.758 493.028 790.758 490.041C790.758 487.074 788.705 484.839 785.861 484.839ZM785.515 493.313C784.011 493.313 782.507 492.297 782.507 490.041C782.507 487.765 784.032 486.79 785.515 486.79C787.242 486.79 788.563 488.131 788.563 490.061C788.563 491.992 787.222 493.313 785.515 493.313ZM793.234 495.04H797.481C799.798 495.04 801.404 493.739 801.404 491.626C801.404 489.533 799.798 488.232 797.481 488.232H795.388V485.062H793.234V495.04ZM795.388 493.191V490.082H797.38C798.538 490.082 799.229 490.691 799.229 491.646C799.229 492.601 798.559 493.191 797.4 493.191H795.388Z" fill="black"/>
<path d="M950.324 493.11V481.628H941.627V483.538C941.627 489.025 941.037 491.951 939.737 493.11H938.68V497.905H940.834V495.04H949.877V497.905H952.031V493.11H950.324ZM943.618 483.558H948.17V493.11H942.094C943.09 491.524 943.598 488.456 943.618 483.558ZM963.076 489.411C963.076 486.79 961.125 484.839 958.463 484.839C955.557 484.839 953.301 487.135 953.301 490.061C953.301 493.008 955.577 495.264 958.666 495.264C960.251 495.264 961.593 494.654 962.649 493.658L961.633 492.195C960.8 492.927 959.886 493.374 958.727 493.374C957.02 493.374 955.76 492.398 955.476 490.752H962.913C962.974 490.488 963.076 489.96 963.076 489.411ZM958.382 486.647C959.743 486.647 960.902 487.521 960.942 489.086H955.516C955.842 487.602 956.98 486.647 958.382 486.647ZM965.541 495.04H967.695V485.062H965.541V495.04ZM970.296 489.614L974.3 485.062H971.78L967.777 489.696L972.085 495.04H974.686L970.296 489.614ZM980.257 484.839C978.57 484.839 977.086 485.509 976.05 486.972L977.29 488.232C978.082 487.298 978.895 486.749 980.053 486.749C981.415 486.749 982.187 487.501 982.187 488.883V489.533H979.362C977.127 489.533 975.684 490.63 975.684 492.378C975.684 494.105 977.066 495.264 979.159 495.264C980.541 495.264 981.638 494.776 982.35 493.922V495.04H984.341V489.005C984.341 486.241 982.655 484.839 980.257 484.839ZM979.606 493.618C978.631 493.618 977.859 493.17 977.859 492.297C977.859 491.484 978.489 491.077 979.627 491.077H982.187V491.26C982.187 492.622 981.009 493.618 979.606 493.618ZM992.554 485.204C991.03 485.204 989.709 485.895 988.896 487.054C988.916 484.473 989.363 482.705 993.448 482.197C995.155 481.994 996.049 481.75 996.516 481.567V479.575C996.151 479.718 995.236 479.962 993.346 480.246C987.9 481.059 986.884 483.66 986.884 487.867V489.472C986.884 492.927 988.998 495.243 992.147 495.243C995.114 495.243 997.39 493.089 997.39 490.224C997.39 487.42 995.257 485.204 992.554 485.204ZM992.127 493.292C990.44 493.292 989.079 491.931 989.079 490.224C989.079 488.517 990.42 487.176 992.127 487.176C993.854 487.176 995.196 488.517 995.196 490.224C995.196 491.931 993.854 493.292 992.127 493.292ZM1005.3 484.839C1003.84 484.839 1002.56 485.428 1001.82 486.464V485.062H999.833V498.698H1001.97V493.821C1002.74 494.735 1003.94 495.264 1005.3 495.264C1008.14 495.264 1010.2 493.028 1010.2 490.041C1010.2 487.074 1008.14 484.839 1005.3 484.839ZM1004.95 493.313C1003.45 493.313 1001.95 492.297 1001.95 490.041C1001.95 487.765 1003.47 486.79 1004.95 486.79C1006.68 486.79 1008 488.131 1008 490.061C1008 491.992 1006.66 493.313 1004.95 493.313ZM1012.67 495.04H1016.92C1019.24 495.04 1020.84 493.739 1020.84 491.626C1020.84 489.533 1019.24 488.232 1016.92 488.232H1014.83V485.062H1012.67V495.04ZM1014.83 493.191V490.082H1016.82C1017.98 490.082 1018.67 490.691 1018.67 491.646C1018.67 492.601 1018 493.191 1016.84 493.191H1014.83Z" fill="black"/>
<path d="M1144.6 481.628C1141.69 481.628 1139.72 483.355 1139.72 485.895C1139.72 487.765 1140.88 489.248 1142.67 489.878L1139.01 495.04H1141.37L1144.82 490.204H1147.04V495.04H1149.19V481.628H1144.6ZM1147.04 488.273H1144.56C1142.97 488.273 1141.94 487.338 1141.94 485.916C1141.94 484.473 1142.97 483.538 1144.56 483.538H1147.04V488.273ZM1152.36 495.04H1154.52V490.732H1158.8V495.04H1160.94V485.062H1158.8V488.883H1154.52V485.062H1152.36V495.04ZM1170.9 489.655C1171.49 489.228 1171.81 488.537 1171.81 487.785C1171.81 486.119 1170.43 485.062 1168.46 485.062H1164.07V495.04H1169.05C1171.18 495.04 1172.61 493.78 1172.61 492.012C1172.61 490.854 1171.94 490.061 1170.9 489.655ZM1166.16 486.79H1168.38C1169.33 486.79 1169.8 487.176 1169.8 487.907C1169.8 488.639 1169.33 489.045 1168.38 489.045H1166.16V486.79ZM1168.85 493.333H1166.16V490.691H1168.85C1169.92 490.691 1170.57 491.179 1170.57 491.972C1170.57 492.764 1169.96 493.333 1168.85 493.333ZM1179.04 484.839C1177.36 484.839 1175.87 485.509 1174.84 486.972L1176.08 488.232C1176.87 487.298 1177.68 486.749 1178.84 486.749C1180.2 486.749 1180.98 487.501 1180.98 488.883V489.533H1178.15C1175.92 489.533 1174.47 490.63 1174.47 492.378C1174.47 494.105 1175.85 495.264 1177.95 495.264C1179.33 495.264 1180.43 494.776 1181.14 493.922V495.04H1183.13V489.005C1183.13 486.241 1181.44 484.839 1179.04 484.839ZM1178.39 493.618C1177.42 493.618 1176.65 493.17 1176.65 492.297C1176.65 491.484 1177.28 491.077 1178.41 491.077H1180.98V491.26C1180.98 492.622 1179.8 493.618 1178.39 493.618ZM1191.57 484.839C1190.1 484.839 1188.82 485.428 1188.09 486.464V485.062H1186.1V498.698H1188.23V493.821C1189.01 494.735 1190.2 495.264 1191.57 495.264C1194.41 495.264 1196.46 493.028 1196.46 490.041C1196.46 487.074 1194.41 484.839 1191.57 484.839ZM1191.22 493.313C1189.72 493.313 1188.21 492.297 1188.21 490.041C1188.21 487.765 1189.74 486.79 1191.22 486.79C1192.95 486.79 1194.27 488.131 1194.27 490.061C1194.27 491.992 1192.93 493.313 1191.22 493.313ZM1198.94 495.04H1203.19C1205.5 495.04 1207.11 493.739 1207.11 491.626C1207.11 489.533 1205.5 488.232 1203.19 488.232H1201.09V485.062H1198.94V495.04ZM1201.09 493.191V490.082H1203.08C1204.24 490.082 1204.93 490.691 1204.93 491.646C1204.93 492.601 1204.26 493.191 1203.11 493.191H1201.09Z" fill="black"/>
</svg>
