<svg width="70" height="55" viewBox="0 0 70 55" fill="none" xmlns="http://www.w3.org/2000/svg">
<path d="M50.4402 8.61862V8.41862H50.2402H19.8298H19.6298V8.61862V12.2623V12.4623H19.8298H50.2402H50.4402V12.2623V8.61862ZM52.2022 1.76196H52.0022V1.96196V7.63764V13.3133V52.2723V52.4723H52.2022H68.1081H68.3081V52.2723V1.96196V1.76196H68.1081H52.2022ZM32.1023 52.3423V52.5423H32.3023H37.1371H37.3371V52.3423V41.8318V41.6318H37.1371H32.3023H32.1023V41.8318V52.3423ZM19.8298 14.0943H19.6298V14.2943V52.3423V52.5423H19.8298H30.3403H30.5403V52.3423V40.8508C30.5403 40.4007 30.8712 40.0699 31.3213 40.0699H38.1181C38.5682 40.0699 38.8991 40.4007 38.8991 40.8508V52.3423V52.5423H39.0991H50.1702H50.3702V52.3423V14.2943V14.0943H50.1702H19.8298ZM1.96196 1.76196H1.76196V1.96196V52.3423V52.5423H1.96196H17.8679H18.0679V52.3423V13.3133V7.63764V1.96196V1.76196H17.8679H1.96196ZM50.2402 6.85666H50.4402V6.65666V0.980981C50.4402 0.530878 50.7711 0.2 51.2212 0.2H69.019C69.4691 0.2 69.8 0.530877 69.8 0.980981V53.3233C69.8 53.7734 69.4691 54.1043 69.019 54.1043H51.1511H38.1181H31.3213H18.8488H0.980981C0.530878 54.1043 0.2 53.7734 0.2 53.3233V0.980981C0.2 0.530877 0.530877 0.2 0.980981 0.2H18.8488C19.299 0.2 19.6298 0.530878 19.6298 0.980981V6.65666V6.85666H19.8298H50.2402Z" fill="white" stroke="#460226" stroke-width="0.4"/>
<path d="M7.2273 48.4885V48.6885H7.4273H11.2111H11.4111V48.4885V45.8258V45.6258H11.2111H7.4273H7.2273V45.8258V48.4885ZM11.4111 5.88588V5.68588H11.2111H7.4273H7.2273V5.88588V9.80981V10.0098H7.4273H11.2111H11.4111V9.80981V5.88588ZM7.4273 39.9501H7.2273V40.1501V43.7938V43.9938H7.4273H11.2111H11.4111V43.7938V40.1501V39.9501H11.2111H7.4273ZM7.2273 15.4855V15.6855H7.4273H11.2111H11.4111V15.4855V11.8418V11.6418H11.2111H7.4273H7.2273V11.8418V15.4855ZM7.2273 21.1612V21.3612H7.4273H11.2111H11.4111V21.1612V17.5175V17.3175H11.2111H7.4273H7.2273V17.5175V21.1612ZM7.4273 22.9231H7.2273V23.1231V26.5668V26.7668V26.8368H7.4273V26.9668H11.2111H11.4111V26.7668V23.1231V22.9231H11.2111H7.4273ZM11.4111 34.4745V34.2745H11.2111H7.4273H7.2273V34.4745V38.1181V38.3181H7.4273H11.2111H11.4111V38.1181V34.4745ZM7.2273 32.4424V32.6424H7.4273H11.2111H11.4111V32.4424V28.7988V28.5988H11.2111H7.4273H7.2273V28.7988V32.4424ZM12.905 4.80655L12.903 4.82062V4.83483V49.3994C12.903 49.8495 12.5721 50.1804 12.122 50.1804H6.37625C5.92614 50.1804 5.59526 49.8495 5.59526 49.3994V4.83483C5.59526 4.38473 5.92614 4.05385 6.37625 4.05385H12.1921C12.6395 4.05385 12.9566 4.44492 12.905 4.80655Z" fill="#D5AC5C" stroke="#460226" stroke-width="0.4"/>
<path d="M62.2121 5.88588V5.68588H62.0121H58.2283H58.0283V5.88588V9.80981V10.0098H58.2283H62.0121H62.2121V9.80981V5.88588ZM58.0283 48.4885V48.6885H58.2283H62.0121H62.2121V48.4885V45.8258V45.6258H62.0121H58.2283H58.0283V45.8258V48.4885ZM62.0121 15.6855H62.2121V15.4855V11.8418V11.6418H62.0121H58.2283H58.0283V11.8418V15.4855V15.6855H58.2283H62.0121ZM62.2121 40.1501V39.9501H62.0121H58.2283H58.0283V40.1501V43.7938V43.9938H58.2283H62.0121H62.2121V43.7938V40.1501ZM62.2121 34.4745V34.2745H62.0121H58.2283H58.0283V34.4745V38.1181V38.3181H58.2283H62.0121H62.2121V38.1181V34.4745ZM62.2121 28.7988V28.5988H62.0121H58.2283H58.0283V28.7988V32.4424V32.6424H58.2283H62.0121H62.2121V32.4424V28.7988ZM58.0283 21.1612V21.3612H58.2283H62.0121H62.2121V21.1612V17.5175V17.3175H62.0121H58.2283H58.0283V17.5175V21.1612ZM62.2121 23.1231V22.9231H62.0121H58.2283H58.0283V23.1231V26.7668V26.9668H58.2283H62.0121H62.2121V26.7668V23.1231ZM62.9931 50.2504H57.2473C57.0188 50.2504 56.8269 50.1657 56.6915 50.0235C56.5557 49.8809 56.4664 49.6695 56.4664 49.3994V4.83483C56.4664 4.38473 56.7972 4.05385 57.2473 4.05385H62.9931C63.4432 4.05385 63.7741 4.38473 63.7741 4.83483V49.4695C63.7741 49.9196 63.4432 50.2504 62.9931 50.2504Z" fill="#D5AC5C" stroke="#460226" stroke-width="0.4"/>
<path d="M27.9579 19.3992H28.1579V19.1992V16.9569V16.7569H27.9579H24.5945H24.3945V16.9569V19.1992V19.3992H24.5945H27.9579ZM23.5435 15.195H28.9389C29.389 15.195 29.7199 15.5259 29.7199 15.976V20.1802C29.7199 20.6303 29.389 20.9611 28.9389 20.9611H23.5435C23.0934 20.9611 22.7625 20.6303 22.7625 20.1802V15.976C22.7625 15.5259 23.0934 15.195 23.5435 15.195Z" fill="white" stroke="#460226" stroke-width="0.4"/>
<path d="M36.6364 16.9569V16.7569H36.4364H33.273H33.073H33.003V16.9569H32.873V19.1992V19.3992H33.073H36.4364H36.6364V19.1992V16.9569ZM37.4174 20.9611H32.022C31.5719 20.9611 31.241 20.6303 31.241 20.1802V15.976C31.241 15.5259 31.5719 15.195 32.022 15.195H37.4174C37.8675 15.195 38.1984 15.5259 38.1984 15.976V20.1802C38.1984 20.6303 37.8675 20.9611 37.4174 20.9611Z" fill="#D5AC5C" stroke="#460226" stroke-width="0.4"/>
<path d="M41.4815 16.7569H41.2815V16.9569V19.1992V19.3992H41.4815H44.8449H45.0449V19.1992V16.9569V16.7569H44.8449H41.4815ZM45.8959 20.9611H40.5005C40.0504 20.9611 39.7195 20.6303 39.7195 20.1802V15.976C39.7195 15.5259 40.0504 15.195 40.5005 15.195H45.8959C46.346 15.195 46.6769 15.5259 46.6769 15.976V20.1802C46.6769 20.6303 46.346 20.9611 45.8959 20.9611Z" fill="white" stroke="#460226" stroke-width="0.4"/>
<path d="M27.9579 27.5974H28.1579V27.3974V25.1551V24.9551H27.9579H24.5945H24.3945V25.1551V27.3974V27.5974H24.5945H27.9579ZM23.5435 23.3231H28.9389C29.3799 23.3231 29.7199 23.7147 29.7199 24.1041V28.3083C29.7199 28.7584 29.389 29.0893 28.9389 29.0893H23.5435C23.0934 29.0893 22.7625 28.7584 22.7625 28.3083V24.1041C22.7625 23.654 23.0934 23.3231 23.5435 23.3231Z" fill="#D5AC5C" stroke="#460226" stroke-width="0.4"/>
<path d="M36.6364 25.1552V24.9552H36.4364H33.273H33.073H33.003V25.1552H32.873V27.3974V27.5974H33.073H36.4364H36.6364V27.3974V25.1552ZM37.4174 29.1594H32.022C31.5719 29.1594 31.241 28.8285 31.241 28.3784V24.1742C31.241 23.7241 31.5719 23.3932 32.022 23.3932H37.4174C37.8675 23.3932 38.1984 23.7241 38.1984 24.1742V28.3784C38.1984 28.8285 37.8675 29.1594 37.4174 29.1594Z" fill="#D5AC5C" stroke="#460226" stroke-width="0.4"/>
<path d="M41.4815 24.9552H41.2815V25.1552V27.3974V27.5974H41.4815H44.8449H45.0449V27.3974V25.1552V24.9552H44.8449H41.4815ZM45.8959 29.1594H40.5005C40.0504 29.1594 39.7195 28.8285 39.7195 28.3784V24.1742C39.7195 23.7241 40.0504 23.3932 40.5005 23.3932H45.8959C46.346 23.3932 46.6769 23.7241 46.6769 24.1742V28.3784C46.6769 28.8285 46.346 29.1594 45.8959 29.1594Z" fill="white" stroke="#460226" stroke-width="0.4"/>
<path d="M27.9579 35.7255H28.1579V35.5255V33.2833V33.0833H27.9579H24.5945H24.3945V33.2833V35.5255V35.7255H24.5945H27.9579ZM23.5435 31.5213H28.9389C29.389 31.5213 29.7199 31.8522 29.7199 32.3023V36.5065C29.7199 36.9566 29.389 37.2875 28.9389 37.2875H23.5435C23.0934 37.2875 22.7625 36.9566 22.7625 36.5065V32.3023C22.7625 31.8522 23.0934 31.5213 23.5435 31.5213Z" fill="#D5AC5C" stroke="#460226" stroke-width="0.4"/>
<path d="M36.6364 33.2833V33.0833H36.4364H33.273H33.073H33.003V33.2833H32.873V35.5255V35.7255H33.073H36.4364H36.6364V35.5255V33.2833ZM37.4174 37.3576H32.022C31.581 37.3576 31.241 36.9659 31.241 36.5766V32.3724C31.241 31.9223 31.5719 31.5914 32.022 31.5914H37.4174C37.8675 31.5914 38.1984 31.9223 38.1984 32.3724V36.5766C38.1984 37.0267 37.8675 37.3576 37.4174 37.3576Z" fill="white" stroke="#460226" stroke-width="0.4"/>
<path d="M41.4815 33.0833H41.2815V33.2833V35.5255V35.7255H41.4815H44.8449H45.0449V35.5255V33.2833V33.0833H44.8449H41.4815ZM45.8959 37.3576H40.5005C40.0595 37.3576 39.7195 36.9659 39.7195 36.5766V32.3724C39.7195 31.9223 40.0504 31.5914 40.5005 31.5914H45.8959C46.346 31.5914 46.6769 31.9223 46.6769 32.3724V36.5766C46.6769 37.0267 46.346 37.3576 45.8959 37.3576Z" fill="white" stroke="#460226" stroke-width="0.4"/>
<path d="M27.9579 43.5734H28.1579V43.3734V41.1311V40.9311H27.9579H24.5945H24.3945V41.1311V43.3734V43.5734H24.5945H27.9579ZM23.5435 39.2991H28.9389C29.3799 39.2991 29.7199 39.6907 29.7199 40.0801V44.2843C29.7199 44.7344 29.389 45.0653 28.9389 45.0653H23.5435C23.0934 45.0653 22.7625 44.7344 22.7625 44.2843V40.0801C22.7625 39.63 23.0934 39.2991 23.5435 39.2991Z" fill="white" stroke="#460226" stroke-width="0.4"/>
<path d="M41.4815 40.9311H41.2815V41.1311V43.3734V43.5734H41.4815H44.8449H45.0449V43.3734V41.1311V40.9311H44.8449H41.4815ZM45.8959 45.1353H40.5005C40.0504 45.1353 39.7195 44.8044 39.7195 44.3543V40.1501C39.7195 39.7 40.0504 39.3692 40.5005 39.3692H45.8959C46.346 39.3692 46.6769 39.7 46.6769 40.1501V44.3543C46.6769 44.8044 46.346 45.1353 45.8959 45.1353Z" fill="white" stroke="#460226" stroke-width="0.4"/>
</svg>
