<svg width="72" height="55" viewBox="0 0 72 55" fill="none" xmlns="http://www.w3.org/2000/svg">
<path d="M49.924 52.2723H22.8745V18.258C22.8745 10.8072 28.9215 4.76024 36.3722 4.76024C43.823 4.76024 49.87 10.8072 49.87 18.258V52.2723H49.924ZM36.4262 3.03253C28.0036 3.03253 21.1468 9.88938 21.1468 18.258V53.1361C21.1468 53.6221 21.5247 54 22.0106 54H50.7878C51.2738 54 51.6517 53.6221 51.6517 53.1361V18.258C51.6517 9.88938 44.8488 3.03253 36.4262 3.03253Z" fill="white"/>
<path d="M29.4074 20.5256H25.736V16.8542H29.4074V20.5256ZM30.2713 15.1265H24.8722C24.3863 15.1265 24.0083 15.5044 24.0083 15.9904V21.3894C24.0083 21.8754 24.3863 22.2533 24.8722 22.2533H30.2713C30.7572 22.2533 31.1351 21.8754 31.1351 21.3894V15.9904C31.1351 15.5044 30.7572 15.1265 30.2713 15.1265Z" fill="white"/>
<path d="M43.4451 16.8542H47.1165V20.5256H43.4451V16.8542ZM41.7174 15.9904V21.3894C41.7174 21.8754 42.0953 22.2533 42.5812 22.2533H47.9803C48.4662 22.2533 48.8442 21.8754 48.8442 21.3894V15.9904C48.8442 15.5044 48.4662 15.1265 47.9803 15.1265H42.5812C42.0953 15.1265 41.7174 15.5044 41.7174 15.9904Z" fill="white"/>
<path d="M29.4074 29.92H25.736V26.2486H29.4074V29.92ZM30.2713 24.5209H24.8722C24.3863 24.5209 24.0083 24.8989 24.0083 25.3848V30.7839C24.0083 31.2698 24.3863 31.6477 24.8722 31.6477H30.2713C30.7572 31.6477 31.1351 31.2698 31.1351 30.7839V25.3848C31.1351 24.8989 30.7572 24.5209 30.2713 24.5209Z" fill="#D5AC5C"/>
<path d="M47.1165 29.92H43.4451V26.2486H47.1165V29.92ZM47.9803 24.5209H42.5812C42.0953 24.5209 41.7174 24.8989 41.7174 25.3848V30.7839C41.7174 31.2698 42.0953 31.6477 42.5812 31.6477H47.9803C48.4662 31.6477 48.8442 31.2698 48.8442 30.7839V25.3848C48.8442 24.8989 48.4662 24.5209 47.9803 24.5209Z" fill="#D5AC5C"/>
<path d="M29.4074 39.3145H25.736V35.6431H29.4074V39.3145ZM30.2713 33.9154H24.8722C24.3863 33.9154 24.0083 34.2933 24.0083 34.7792V40.1783C24.0083 40.6642 24.3863 41.0422 24.8722 41.0422H30.2713C30.7572 41.0422 31.1351 40.6642 31.1351 40.1783V34.7792C31.1351 34.2933 30.7572 33.9154 30.2713 33.9154Z" fill="white"/>
<path d="M47.1165 39.3145H43.4451V35.6431H47.1165V39.3145ZM47.9803 33.9154H42.5812C42.0953 33.9154 41.7174 34.2933 41.7174 34.7792V40.1783C41.7174 40.6642 42.0953 41.0422 42.5812 41.0422H47.9803C48.4662 41.0422 48.8442 40.6642 48.8442 40.1783V34.7792C48.8442 34.2933 48.4662 33.9154 47.9803 33.9154Z" fill="#D5AC5C"/>
<path d="M29.4074 48.7089H25.736V45.0375H29.4074V48.7089ZM30.2713 43.3098H24.8722C24.3863 43.3098 24.0083 43.6877 24.0083 44.1736V49.5727C24.0083 50.0587 24.3863 50.4366 24.8722 50.4366H30.2713C30.7572 50.4366 31.1351 50.0587 31.1351 49.5727V44.1736C31.1351 43.6877 30.7572 43.3098 30.2713 43.3098Z" fill="white"/>
<path d="M47.1165 48.7089H43.4451V45.0375H47.1165V48.7089ZM47.9803 43.3098H42.5812C42.0953 43.3098 41.7174 43.6877 41.7174 44.1736V49.5727C41.7174 50.0587 42.0953 50.4366 42.5812 50.4366H47.9803C48.4662 50.4366 48.8442 50.0587 48.8442 49.5727V44.1736C48.8442 43.6877 48.4662 43.3098 47.9803 43.3098Z" fill="white"/>
<path d="M52.5156 11.6171C52.6236 11.6171 52.7316 11.6171 52.8936 11.5631C53.3255 11.3471 53.5415 10.8612 53.3255 10.4293C50.464 4.16634 44.147 0.225 36.8583 0.00903587C33.2949 -0.098946 29.8394 0.764909 26.8159 2.38464C23.5225 4.16634 20.8769 6.91988 19.0952 10.3213C18.8793 10.7532 19.0413 11.2392 19.4732 11.5091C19.9051 11.7251 20.391 11.5631 20.661 11.1312C22.2807 8.05369 24.7103 5.57011 27.6798 3.95038C30.4333 2.43863 33.6188 1.68276 36.8583 1.73675C43.4992 1.89872 49.2222 5.51611 51.7598 11.0772C51.8678 11.4011 52.1377 11.6171 52.5156 11.6171Z" fill="#D5AC5C"/>
<path d="M1 53.5H70.5" stroke="white" stroke-width="2" stroke-linecap="round"/>
</svg>
