<svg width="72" height="54" viewBox="0 0 72 54" fill="none" xmlns="http://www.w3.org/2000/svg">
<path d="M25.4044 52.2616V50.6473H43.7453V52.2616H25.4044ZM22.9259 15.2578L23.6694 14.5128V52.2616H22.9259V15.2578ZM34.5749 2.03334L42.3822 9.04915H26.8295L34.5749 2.03334ZM25.4044 46.6738H43.7453V48.9089H25.4044V46.6738ZM25.4044 42.6381H43.7453V44.8732H25.4044V42.6381ZM43.8073 14.7611V16.9963H25.4044V14.7611H43.8073ZM43.8073 38.6646V40.8997H25.4044V38.6646H43.8073ZM43.8073 34.691V36.9261H25.4044V34.691H43.8073ZM43.8073 30.7174V32.9526H25.4044V30.7174H43.8073ZM43.8073 26.6818V28.9169H25.4044V26.6818H43.8073ZM25.4044 20.9698V18.7347H43.7453V20.9698H25.4044ZM43.8073 22.7082V24.9434H25.4044V22.7082H43.8073ZM43.8073 10.7255V13.0227H25.4044V12.4018V10.7255H43.8073ZM46.2238 52.2616H45.4803V15.1957L46.2238 15.9408V52.2616ZM11.5248 42.0793C11.5248 40.6513 12.3922 39.4717 13.5076 39.4717C14.6229 39.4717 15.4904 40.6513 15.4904 42.0793C15.4904 43.3211 14.8088 44.3765 13.9413 44.6249C13.8174 44.5628 13.6315 44.5007 13.5076 44.5007C13.3217 44.5007 13.1977 44.5628 13.0738 44.6249C12.1444 44.3765 11.5248 43.3211 11.5248 42.0793ZM54.1551 42.0793C54.1551 40.6513 55.0225 39.4717 56.1379 39.4717C57.1912 39.4717 58.1207 40.6513 58.1207 42.0793C58.1207 43.3211 57.4391 44.3765 56.5716 44.6249C56.4477 44.5628 56.2618 44.5007 56.1379 44.5007C55.952 44.5007 55.828 44.5628 55.7041 44.6249C54.8366 44.3765 54.1551 43.3211 54.1551 42.0793ZM71.1325 52.2616H57.0053V46.3012C58.6164 45.8666 59.8556 44.1282 59.8556 42.0793C59.8556 39.6579 58.1826 37.7333 56.1379 37.7333C54.0931 37.7333 52.4201 39.6579 52.4201 42.0793C52.4201 44.1282 53.5974 45.8666 55.2704 46.3012V52.2616H47.9588V15.5683C47.9588 15.3199 47.8968 15.1337 47.7109 14.9474L45.4803 12.7123V9.85628V9.79419V9.73211V9.67002V9.60793V9.54585C45.4803 9.54585 45.4803 9.54585 45.4803 9.48376C45.4803 9.48376 45.4803 9.48376 45.4183 9.42167C45.4183 9.42167 45.4183 9.42167 45.3564 9.35959L35.1945 0.232826C34.8847 -0.0776085 34.389 -0.0776085 34.0172 0.232826L23.9792 9.23541C23.9792 9.23541 23.9792 9.23541 23.9173 9.2975C23.9173 9.2975 23.9173 9.2975 23.8553 9.35959C23.8553 9.35959 23.8553 9.35959 23.8553 9.42167V9.48376V9.54585V9.60793V9.67002V9.73211V11.9051L21.4388 14.2644C21.2529 14.4507 21.1909 14.637 21.1909 14.8853V52.2616H14.3131V46.3012C15.9241 45.8666 17.1634 44.1282 17.1634 42.0793C17.1634 39.6579 15.4904 37.7333 13.4456 37.7333C11.4008 37.7333 9.72784 39.6579 9.72784 42.0793C9.72784 44.1282 10.9051 45.8666 12.5781 46.3012V52.2616H0.867477C0.371776 52.2616 0 52.6341 0 53.1308C0 53.5654 0.371776 54 0.867477 54H24.5369H44.6748H71.1325C71.6282 54 72 53.6275 72 53.1308C72 52.6341 71.6282 52.2616 71.1325 52.2616Z" fill="white"/>
</svg>
