<svg width="72" height="55" viewBox="0 0 72 55" fill="none" xmlns="http://www.w3.org/2000/svg">
<path d="M52.316 52.488H36.17V14.256V14.148V2.646L52.316 19.494V52.488ZM18.512 28.296L34.658 15.768V52.488H18.512V28.296ZM35.954 0.216C35.738 0 35.414 -0.054 35.144 0.054C34.874 0.162 34.658 0.432 34.658 0.756V13.878L17.27 27.324C17.108 27.486 17 27.702 17 27.918V53.244C17 53.676 17.324 54 17.756 54H35.414H53.072C53.504 54 53.828 53.676 53.828 53.244V19.17C53.828 18.954 53.774 18.792 53.612 18.63L35.954 0.216Z" fill="white"/>
<path d="M52.316 52.488H36.17V14.256V14.148V2.646L52.316 19.494V52.488ZM18.512 28.296L34.658 15.768V52.488H18.512V28.296ZM35.954 0.216C35.738 0 35.414 -0.054 35.144 0.054C34.874 0.162 34.658 0.432 34.658 0.756V13.878L17.27 27.324C17.108 27.486 17 27.702 17 27.918V53.244C17 53.676 17.324 54 17.756 54H35.414H53.072C53.504 54 53.828 53.676 53.828 53.244V19.17C53.828 18.954 53.774 18.792 53.612 18.63L35.954 0.216Z" stroke="#460226"/>
<path d="M31.552 22.95C32.362 22.95 33.01 22.302 33.01 21.492C33.01 20.682 32.362 20.034 31.552 20.034C30.742 20.034 30.094 20.682 30.094 21.492C30.094 22.302 30.742 22.95 31.552 22.95Z" fill="white"/>
<path d="M31.552 22.95C32.362 22.95 33.01 22.302 33.01 21.492C33.01 20.682 32.362 20.034 31.552 20.034C30.742 20.034 30.094 20.682 30.094 21.492C30.094 22.302 30.742 22.95 31.552 22.95Z" stroke="#460226"/>
<path d="M31.552 25.542C30.742 25.542 30.094 26.19 30.094 27C30.094 27.81 30.742 28.458 31.552 28.458C32.362 28.458 33.01 27.81 33.01 27C32.956 26.19 32.308 25.542 31.552 25.542Z" fill="#D5AC5C"/>
<path d="M31.552 25.542C30.742 25.542 30.094 26.19 30.094 27C30.094 27.81 30.742 28.458 31.552 28.458C32.362 28.458 33.01 27.81 33.01 27C32.956 26.19 32.308 25.542 31.552 25.542Z" stroke="#460226"/>
<path d="M31.552 31.05C30.742 31.05 30.094 31.698 30.094 32.508C30.094 33.318 30.742 33.966 31.552 33.966C32.362 33.966 33.01 33.318 33.01 32.508C32.956 31.698 32.308 31.05 31.552 31.05Z" fill="white"/>
<path d="M31.552 31.05C30.742 31.05 30.094 31.698 30.094 32.508C30.094 33.318 30.742 33.966 31.552 33.966C32.362 33.966 33.01 33.318 33.01 32.508C32.956 31.698 32.308 31.05 31.552 31.05Z" stroke="#460226"/>
<path d="M31.552 36.504C30.742 36.504 30.094 37.152 30.094 37.962C30.094 38.772 30.742 39.42 31.552 39.42C32.362 39.42 33.01 38.772 33.01 37.962C32.956 37.152 32.308 36.504 31.552 36.504Z" fill="#D5AC5C"/>
<path d="M31.552 36.504C30.742 36.504 30.094 37.152 30.094 37.962C30.094 38.772 30.742 39.42 31.552 39.42C32.362 39.42 33.01 38.772 33.01 37.962C32.956 37.152 32.308 36.504 31.552 36.504Z" stroke="#460226"/>
<path d="M31.552 42.012C30.742 42.012 30.094 42.66 30.094 43.47C30.094 44.28 30.742 44.928 31.552 44.928C32.362 44.928 33.01 44.28 33.01 43.47C32.956 42.66 32.308 42.012 31.552 42.012Z" fill="white"/>
<path d="M31.552 42.012C30.742 42.012 30.094 42.66 30.094 43.47C30.094 44.28 30.742 44.928 31.552 44.928C32.362 44.928 33.01 44.28 33.01 43.47C32.956 42.66 32.308 42.012 31.552 42.012Z" stroke="#460226"/>
<path d="M31.552 47.466C30.742 47.466 30.094 48.114 30.094 48.924C30.094 49.734 30.742 50.382 31.552 50.382C32.362 50.382 33.01 49.734 33.01 48.924C32.956 48.114 32.308 47.466 31.552 47.466Z" fill="white"/>
<path d="M31.552 47.466C30.742 47.466 30.094 48.114 30.094 48.924C30.094 49.734 30.742 50.382 31.552 50.382C32.362 50.382 33.01 49.734 33.01 48.924C32.956 48.114 32.308 47.466 31.552 47.466Z" stroke="#460226"/>
<path d="M26.584 25.542C25.774 25.542 25.126 26.19 25.126 27C25.126 27.81 25.774 28.458 26.584 28.458C27.394 28.458 28.042 27.81 28.042 27C28.042 26.19 27.394 25.542 26.584 25.542Z" fill="white"/>
<path d="M26.584 25.542C25.774 25.542 25.126 26.19 25.126 27C25.126 27.81 25.774 28.458 26.584 28.458C27.394 28.458 28.042 27.81 28.042 27C28.042 26.19 27.394 25.542 26.584 25.542Z" stroke="#460226"/>
<path d="M26.584 31.05C25.774 31.05 25.126 31.698 25.126 32.508C25.126 33.318 25.774 33.966 26.584 33.966C27.394 33.966 28.042 33.318 28.042 32.508C28.042 31.698 27.394 31.05 26.584 31.05Z" fill="#D5AC5C"/>
<path d="M26.584 31.05C25.774 31.05 25.126 31.698 25.126 32.508C25.126 33.318 25.774 33.966 26.584 33.966C27.394 33.966 28.042 33.318 28.042 32.508C28.042 31.698 27.394 31.05 26.584 31.05Z" stroke="#460226"/>
<path d="M26.584 36.504C25.774 36.504 25.126 37.152 25.126 37.962C25.126 38.772 25.774 39.42 26.584 39.42C27.394 39.42 28.042 38.772 28.042 37.962C28.042 37.152 27.394 36.504 26.584 36.504Z" fill="#D5AC5C"/>
<path d="M26.584 36.504C25.774 36.504 25.126 37.152 25.126 37.962C25.126 38.772 25.774 39.42 26.584 39.42C27.394 39.42 28.042 38.772 28.042 37.962C28.042 37.152 27.394 36.504 26.584 36.504Z" stroke="#460226"/>
<path d="M26.584 42.012C25.774 42.012 25.126 42.66 25.126 43.47C25.126 44.28 25.774 44.928 26.584 44.928C27.394 44.928 28.042 44.28 28.042 43.47C28.042 42.66 27.394 42.012 26.584 42.012Z" fill="#D5AC5C"/>
<path d="M26.584 42.012C25.774 42.012 25.126 42.66 25.126 43.47C25.126 44.28 25.774 44.928 26.584 44.928C27.394 44.928 28.042 44.28 28.042 43.47C28.042 42.66 27.394 42.012 26.584 42.012Z" stroke="#460226"/>
<path d="M26.584 47.466C25.774 47.466 25.126 48.114 25.126 48.924C25.126 49.734 25.774 50.382 26.584 50.382C27.394 50.382 28.042 49.734 28.042 48.924C28.042 48.114 27.394 47.466 26.584 47.466Z" fill="white"/>
<path d="M26.584 47.466C25.774 47.466 25.126 48.114 25.126 48.924C25.126 49.734 25.774 50.382 26.584 50.382C27.394 50.382 28.042 49.734 28.042 48.924C28.042 48.114 27.394 47.466 26.584 47.466Z" stroke="#460226"/>
<path d="M21.3999 31.05C20.5899 31.05 19.9419 31.698 19.9419 32.508C19.9419 33.318 20.5899 33.966 21.3999 33.966C22.2099 33.966 22.8579 33.318 22.8579 32.508C22.8579 31.698 22.2099 31.05 21.3999 31.05Z" fill="#D5AC5C"/>
<path d="M21.3999 31.05C20.5899 31.05 19.9419 31.698 19.9419 32.508C19.9419 33.318 20.5899 33.966 21.3999 33.966C22.2099 33.966 22.8579 33.318 22.8579 32.508C22.8579 31.698 22.2099 31.05 21.3999 31.05Z" stroke="#460226"/>
<path d="M21.3999 36.504C20.5899 36.504 19.9419 37.152 19.9419 37.962C19.9419 38.772 20.5899 39.42 21.3999 39.42C22.2099 39.42 22.8579 38.772 22.8579 37.962C22.8579 37.152 22.2099 36.504 21.3999 36.504Z" fill="white"/>
<path d="M21.3999 36.504C20.5899 36.504 19.9419 37.152 19.9419 37.962C19.9419 38.772 20.5899 39.42 21.3999 39.42C22.2099 39.42 22.8579 38.772 22.8579 37.962C22.8579 37.152 22.2099 36.504 21.3999 36.504Z" stroke="#460226"/>
<path d="M21.3999 42.012C20.5899 42.012 19.9419 42.66 19.9419 43.47C19.9419 44.28 20.5899 44.928 21.3999 44.928C22.2099 44.928 22.8579 44.28 22.8579 43.47C22.8579 42.66 22.2099 42.012 21.3999 42.012Z" fill="white"/>
<path d="M21.3999 42.012C20.5899 42.012 19.9419 42.66 19.9419 43.47C19.9419 44.28 20.5899 44.928 21.3999 44.928C22.2099 44.928 22.8579 44.28 22.8579 43.47C22.8579 42.66 22.2099 42.012 21.3999 42.012Z" stroke="#460226"/>
<path d="M21.3999 47.466C20.5899 47.466 19.9419 48.114 19.9419 48.924C19.9419 49.734 20.5899 50.382 21.3999 50.382C22.2099 50.382 22.8579 49.734 22.8579 48.924C22.8579 48.114 22.2099 47.466 21.3999 47.466Z" fill="#D5AC5C"/>
<path d="M21.3999 47.466C20.5899 47.466 19.9419 48.114 19.9419 48.924C19.9419 49.734 20.5899 50.382 21.3999 50.382C22.2099 50.382 22.8579 49.734 22.8579 48.924C22.8579 48.114 22.2099 47.466 21.3999 47.466Z" stroke="#460226"/>
<path d="M39.572 12.96C40.382 12.96 41.03 12.312 41.03 11.502C41.03 10.692 40.382 10.044 39.572 10.044C38.762 10.044 38.114 10.692 38.114 11.502C38.114 12.312 38.762 12.96 39.572 12.96Z" fill="white"/>
<path d="M39.572 12.96C40.382 12.96 41.03 12.312 41.03 11.502C41.03 10.692 40.382 10.044 39.572 10.044C38.762 10.044 38.114 10.692 38.114 11.502C38.114 12.312 38.762 12.96 39.572 12.96Z" stroke="#460226"/>
<path d="M39.572 17.118C40.382 17.118 41.03 16.47 41.03 15.66C41.03 14.85 40.382 14.202 39.572 14.202C38.762 14.202 38.114 14.85 38.114 15.66C38.114 16.47 38.762 17.118 39.572 17.118Z" fill="#D5AC5C"/>
<path d="M39.572 17.118C40.382 17.118 41.03 16.47 41.03 15.66C41.03 14.85 40.382 14.202 39.572 14.202C38.762 14.202 38.114 14.85 38.114 15.66C38.114 16.47 38.762 17.118 39.572 17.118Z" stroke="#460226"/>
<path d="M39.572 21.222C40.382 21.222 41.03 20.574 41.03 19.764C41.03 18.954 40.382 18.306 39.572 18.306C38.762 18.306 38.114 18.954 38.114 19.764C38.114 20.574 38.762 21.222 39.572 21.222Z" fill="white"/>
<path d="M39.572 21.222C40.382 21.222 41.03 20.574 41.03 19.764C41.03 18.954 40.382 18.306 39.572 18.306C38.762 18.306 38.114 18.954 38.114 19.764C38.114 20.574 38.762 21.222 39.572 21.222Z" stroke="#460226"/>
<path d="M39.572 25.38C40.382 25.38 41.03 24.732 41.03 23.922C41.03 23.112 40.382 22.464 39.572 22.464C38.762 22.464 38.114 23.112 38.114 23.922C38.114 24.732 38.762 25.38 39.572 25.38Z" fill="#D5AC5C"/>
<path d="M39.572 25.38C40.382 25.38 41.03 24.732 41.03 23.922C41.03 23.112 40.382 22.464 39.572 22.464C38.762 22.464 38.114 23.112 38.114 23.922C38.114 24.732 38.762 25.38 39.572 25.38Z" stroke="#460226"/>
<path d="M39.572 29.538C40.382 29.538 41.03 28.89 41.03 28.08C41.03 27.27 40.382 26.622 39.572 26.622C38.762 26.622 38.114 27.27 38.114 28.08C38.114 28.89 38.762 29.538 39.572 29.538Z" fill="#D5AC5C"/>
<path d="M39.572 29.538C40.382 29.538 41.03 28.89 41.03 28.08C41.03 27.27 40.382 26.622 39.572 26.622C38.762 26.622 38.114 27.27 38.114 28.08C38.114 28.89 38.762 29.538 39.572 29.538Z" stroke="#460226"/>
<path d="M39.572 33.642C40.382 33.642 41.03 32.994 41.03 32.184C41.03 31.374 40.382 30.726 39.572 30.726C38.762 30.726 38.114 31.374 38.114 32.184C38.114 32.994 38.762 33.642 39.572 33.642Z" fill="white"/>
<path d="M39.572 33.642C40.382 33.642 41.03 32.994 41.03 32.184C41.03 31.374 40.382 30.726 39.572 30.726C38.762 30.726 38.114 31.374 38.114 32.184C38.114 32.994 38.762 33.642 39.572 33.642Z" stroke="#460226"/>
<path d="M39.572 37.8C40.382 37.8 41.03 37.152 41.03 36.342C41.03 35.532 40.382 34.884 39.572 34.884C38.762 34.884 38.114 35.532 38.114 36.342C38.114 37.152 38.762 37.8 39.572 37.8Z" fill="white"/>
<path d="M39.572 37.8C40.382 37.8 41.03 37.152 41.03 36.342C41.03 35.532 40.382 34.884 39.572 34.884C38.762 34.884 38.114 35.532 38.114 36.342C38.114 37.152 38.762 37.8 39.572 37.8Z" stroke="#460226"/>
<path d="M39.572 41.958C40.382 41.958 41.03 41.31 41.03 40.5C41.03 39.69 40.382 39.042 39.572 39.042C38.762 39.042 38.114 39.69 38.114 40.5C38.114 41.31 38.762 41.958 39.572 41.958Z" fill="white"/>
<path d="M39.572 41.958C40.382 41.958 41.03 41.31 41.03 40.5C41.03 39.69 40.382 39.042 39.572 39.042C38.762 39.042 38.114 39.69 38.114 40.5C38.114 41.31 38.762 41.958 39.572 41.958Z" stroke="#460226"/>
<path d="M39.572 46.116C40.382 46.116 41.03 45.468 41.03 44.658C41.03 43.848 40.382 43.2 39.572 43.2C38.762 43.2 38.114 43.848 38.114 44.658C38.114 45.468 38.762 46.116 39.572 46.116Z" fill="white"/>
<path d="M39.572 46.116C40.382 46.116 41.03 45.468 41.03 44.658C41.03 43.848 40.382 43.2 39.572 43.2C38.762 43.2 38.114 43.848 38.114 44.658C38.114 45.468 38.762 46.116 39.572 46.116Z" stroke="#460226"/>
<path d="M39.572 50.22C40.382 50.22 41.03 49.572 41.03 48.762C41.03 47.952 40.382 47.304 39.572 47.304C38.762 47.304 38.114 47.952 38.114 48.762C38.114 49.572 38.762 50.22 39.572 50.22Z" fill="#D5AC5C"/>
<path d="M39.572 50.22C40.382 50.22 41.03 49.572 41.03 48.762C41.03 47.952 40.382 47.304 39.572 47.304C38.762 47.304 38.114 47.952 38.114 48.762C38.114 49.572 38.762 50.22 39.572 50.22Z" stroke="#460226"/>
<path d="M43.9458 17.118C44.7558 17.118 45.4038 16.47 45.4038 15.66C45.4038 14.85 44.7558 14.202 43.9458 14.202C43.1358 14.202 42.4878 14.85 42.4878 15.66C42.4878 16.47 43.1358 17.118 43.9458 17.118Z" fill="white"/>
<path d="M43.9458 17.118C44.7558 17.118 45.4038 16.47 45.4038 15.66C45.4038 14.85 44.7558 14.202 43.9458 14.202C43.1358 14.202 42.4878 14.85 42.4878 15.66C42.4878 16.47 43.1358 17.118 43.9458 17.118Z" stroke="#460226"/>
<path d="M43.9458 21.222C44.7558 21.222 45.4038 20.574 45.4038 19.764C45.4038 18.954 44.7558 18.306 43.9458 18.306C43.1358 18.306 42.4878 18.954 42.4878 19.764C42.4878 20.574 43.1358 21.222 43.9458 21.222Z" fill="#D5AC5C"/>
<path d="M43.9458 21.222C44.7558 21.222 45.4038 20.574 45.4038 19.764C45.4038 18.954 44.7558 18.306 43.9458 18.306C43.1358 18.306 42.4878 18.954 42.4878 19.764C42.4878 20.574 43.1358 21.222 43.9458 21.222Z" stroke="#460226"/>
<path d="M43.9458 25.38C44.7558 25.38 45.4038 24.732 45.4038 23.922C45.4038 23.112 44.7558 22.464 43.9458 22.464C43.1358 22.464 42.4878 23.112 42.4878 23.922C42.4878 24.732 43.1358 25.38 43.9458 25.38Z" fill="#D5AC5C"/>
<path d="M43.9458 25.38C44.7558 25.38 45.4038 24.732 45.4038 23.922C45.4038 23.112 44.7558 22.464 43.9458 22.464C43.1358 22.464 42.4878 23.112 42.4878 23.922C42.4878 24.732 43.1358 25.38 43.9458 25.38Z" stroke="#460226"/>
<path d="M43.9458 29.538C44.7558 29.538 45.4038 28.89 45.4038 28.08C45.4038 27.27 44.7558 26.622 43.9458 26.622C43.1358 26.622 42.4878 27.27 42.4878 28.08C42.4878 28.89 43.1358 29.538 43.9458 29.538Z" fill="#D5AC5C"/>
<path d="M43.9458 29.538C44.7558 29.538 45.4038 28.89 45.4038 28.08C45.4038 27.27 44.7558 26.622 43.9458 26.622C43.1358 26.622 42.4878 27.27 42.4878 28.08C42.4878 28.89 43.1358 29.538 43.9458 29.538Z" stroke="#460226"/>
<path d="M43.9458 33.642C44.7558 33.642 45.4038 32.994 45.4038 32.184C45.4038 31.374 44.7558 30.726 43.9458 30.726C43.1358 30.726 42.4878 31.374 42.4878 32.184C42.4878 32.994 43.1358 33.642 43.9458 33.642Z" fill="white"/>
<path d="M43.9458 33.642C44.7558 33.642 45.4038 32.994 45.4038 32.184C45.4038 31.374 44.7558 30.726 43.9458 30.726C43.1358 30.726 42.4878 31.374 42.4878 32.184C42.4878 32.994 43.1358 33.642 43.9458 33.642Z" stroke="#460226"/>
<path d="M43.9458 37.8C44.7558 37.8 45.4038 37.152 45.4038 36.342C45.4038 35.532 44.7558 34.884 43.9458 34.884C43.1358 34.884 42.4878 35.532 42.4878 36.342C42.4878 37.152 43.1358 37.8 43.9458 37.8Z" fill="#D5AC5C"/>
<path d="M43.9458 37.8C44.7558 37.8 45.4038 37.152 45.4038 36.342C45.4038 35.532 44.7558 34.884 43.9458 34.884C43.1358 34.884 42.4878 35.532 42.4878 36.342C42.4878 37.152 43.1358 37.8 43.9458 37.8Z" stroke="#460226"/>
<path d="M43.9458 41.958C44.7558 41.958 45.4038 41.31 45.4038 40.5C45.4038 39.69 44.7558 39.042 43.9458 39.042C43.1358 39.042 42.4878 39.69 42.4878 40.5C42.4878 41.31 43.1358 41.958 43.9458 41.958Z" fill="white"/>
<path d="M43.9458 41.958C44.7558 41.958 45.4038 41.31 45.4038 40.5C45.4038 39.69 44.7558 39.042 43.9458 39.042C43.1358 39.042 42.4878 39.69 42.4878 40.5C42.4878 41.31 43.1358 41.958 43.9458 41.958Z" stroke="#460226"/>
<path d="M43.9458 46.116C44.7558 46.116 45.4038 45.468 45.4038 44.658C45.4038 43.848 44.7558 43.2 43.9458 43.2C43.1358 43.2 42.4878 43.848 42.4878 44.658C42.4878 45.468 43.1358 46.116 43.9458 46.116Z" fill="#D5AC5C"/>
<path d="M43.9458 46.116C44.7558 46.116 45.4038 45.468 45.4038 44.658C45.4038 43.848 44.7558 43.2 43.9458 43.2C43.1358 43.2 42.4878 43.848 42.4878 44.658C42.4878 45.468 43.1358 46.116 43.9458 46.116Z" stroke="#460226"/>
<path d="M43.9458 50.22C44.7558 50.22 45.4038 49.572 45.4038 48.762C45.4038 47.952 44.7558 47.304 43.9458 47.304C43.1358 47.304 42.4878 47.952 42.4878 48.762C42.4878 49.572 43.1358 50.22 43.9458 50.22Z" fill="#D5AC5C"/>
<path d="M43.9458 50.22C44.7558 50.22 45.4038 49.572 45.4038 48.762C45.4038 47.952 44.7558 47.304 43.9458 47.304C43.1358 47.304 42.4878 47.952 42.4878 48.762C42.4878 49.572 43.1358 50.22 43.9458 50.22Z" stroke="#460226"/>
<path d="M48.2122 21.222C49.0222 21.222 49.6702 20.574 49.6702 19.764C49.6702 18.954 49.0222 18.306 48.2122 18.306C47.4022 18.306 46.7542 18.954 46.7542 19.764C46.8082 20.574 47.4562 21.222 48.2122 21.222Z" fill="white"/>
<path d="M48.2122 21.222C49.0222 21.222 49.6702 20.574 49.6702 19.764C49.6702 18.954 49.0222 18.306 48.2122 18.306C47.4022 18.306 46.7542 18.954 46.7542 19.764C46.8082 20.574 47.4562 21.222 48.2122 21.222Z" stroke="#460226"/>
<path d="M48.2122 25.38C49.0222 25.38 49.6702 24.732 49.6702 23.922C49.6702 23.112 49.0222 22.464 48.2122 22.464C47.4022 22.464 46.7542 23.112 46.7542 23.922C46.8082 24.732 47.4562 25.38 48.2122 25.38Z" fill="white"/>
<path d="M48.2122 25.38C49.0222 25.38 49.6702 24.732 49.6702 23.922C49.6702 23.112 49.0222 22.464 48.2122 22.464C47.4022 22.464 46.7542 23.112 46.7542 23.922C46.8082 24.732 47.4562 25.38 48.2122 25.38Z" stroke="#460226"/>
<path d="M48.2122 29.538C49.0222 29.538 49.6702 28.89 49.6702 28.08C49.6702 27.27 49.0222 26.622 48.2122 26.622C47.4022 26.622 46.7542 27.27 46.7542 28.08C46.8082 28.89 47.4562 29.538 48.2122 29.538Z" fill="white"/>
<path d="M48.2122 29.538C49.0222 29.538 49.6702 28.89 49.6702 28.08C49.6702 27.27 49.0222 26.622 48.2122 26.622C47.4022 26.622 46.7542 27.27 46.7542 28.08C46.8082 28.89 47.4562 29.538 48.2122 29.538Z" stroke="#460226"/>
<path d="M48.2122 33.642C49.0222 33.642 49.6702 32.994 49.6702 32.184C49.6702 31.374 49.0222 30.726 48.2122 30.726C47.4022 30.726 46.7542 31.374 46.7542 32.184C46.8082 32.994 47.4562 33.642 48.2122 33.642Z" fill="white"/>
<path d="M48.2122 33.642C49.0222 33.642 49.6702 32.994 49.6702 32.184C49.6702 31.374 49.0222 30.726 48.2122 30.726C47.4022 30.726 46.7542 31.374 46.7542 32.184C46.8082 32.994 47.4562 33.642 48.2122 33.642Z" stroke="#460226"/>
<path d="M48.2122 37.8C49.0222 37.8 49.6702 37.152 49.6702 36.342C49.6702 35.532 49.0222 34.884 48.2122 34.884C47.4022 34.884 46.7542 35.532 46.7542 36.342C46.8082 37.152 47.4562 37.8 48.2122 37.8Z" fill="white"/>
<path d="M48.2122 37.8C49.0222 37.8 49.6702 37.152 49.6702 36.342C49.6702 35.532 49.0222 34.884 48.2122 34.884C47.4022 34.884 46.7542 35.532 46.7542 36.342C46.8082 37.152 47.4562 37.8 48.2122 37.8Z" stroke="#460226"/>
<path d="M48.2122 41.958C49.0222 41.958 49.6702 41.31 49.6702 40.5C49.6702 39.69 49.0222 39.042 48.2122 39.042C47.4022 39.042 46.7542 39.69 46.7542 40.5C46.8082 41.31 47.4562 41.958 48.2122 41.958Z" fill="#D5AC5C"/>
<path d="M48.2122 41.958C49.0222 41.958 49.6702 41.31 49.6702 40.5C49.6702 39.69 49.0222 39.042 48.2122 39.042C47.4022 39.042 46.7542 39.69 46.7542 40.5C46.8082 41.31 47.4562 41.958 48.2122 41.958Z" stroke="#460226"/>
<path d="M48.2122 46.116C49.0222 46.116 49.6702 45.468 49.6702 44.658C49.6702 43.848 49.0222 43.2 48.2122 43.2C47.4022 43.2 46.7542 43.848 46.7542 44.658C46.8082 45.468 47.4562 46.116 48.2122 46.116Z" fill="white"/>
<path d="M48.2122 46.116C49.0222 46.116 49.6702 45.468 49.6702 44.658C49.6702 43.848 49.0222 43.2 48.2122 43.2C47.4022 43.2 46.7542 43.848 46.7542 44.658C46.8082 45.468 47.4562 46.116 48.2122 46.116Z" stroke="#460226"/>
<path d="M48.2122 50.22C49.0222 50.22 49.6702 49.572 49.6702 48.762C49.6702 47.952 49.0222 47.304 48.2122 47.304C47.4022 47.304 46.7542 47.952 46.7542 48.762C46.8082 49.572 47.4562 50.22 48.2122 50.22Z" fill="white"/>
<path d="M48.2122 50.22C49.0222 50.22 49.6702 49.572 49.6702 48.762C49.6702 47.952 49.0222 47.304 48.2122 47.304C47.4022 47.304 46.7542 47.952 46.7542 48.762C46.8082 49.572 47.4562 50.22 48.2122 50.22Z" stroke="#460226"/>
<path d="M1 53.5H70.5" stroke="white" stroke-width="2" stroke-linecap="round"/>
</svg>
