<svg width="72" height="52" viewBox="0 0 72 52" fill="none" xmlns="http://www.w3.org/2000/svg">
<path d="M2.09009 43.2595H1.89009V43.4595V49.2252V49.4252H2.09009H69.982H70.182V49.2252V43.4595V43.2595H69.982H56.5045H47.7838H25.5135H16.7928H2.09009ZM24.5045 41.6414H24.7045V41.4414V29.6216V29.4216H24.5045H17.8018H17.6018V29.6216V41.4414V41.6414H17.8018H24.5045ZM7.56757 13.6378H7.36757V13.8378V41.3694V41.5694H7.56757H15.7838H15.9838V41.3694V28.5405C15.9838 28.0744 16.3267 27.7315 16.7928 27.7315H25.5856C26.0517 27.7315 26.3946 28.0744 26.3946 28.5405V41.3694V41.5694H26.5946H35.2432H35.4432V41.3694V13.8378V13.6378H35.2432H7.56757ZM21.2416 2.14977L21.1167 2.05048L20.9922 2.15013L9.10029 11.6636L8.65507 12.0198H9.22523H33.0811H33.6539L33.2056 11.6633L21.2416 2.14977ZM51.2236 2.14977L51.0987 2.05048L50.9742 2.15013L39.0823 11.6636L38.6371 12.0198H39.2072H63.0631H63.6359L63.1875 11.6633L51.2236 2.14977ZM55.4955 41.6414H55.6955V41.4414V29.6216V29.4216H55.4955H48.7928H48.5928V29.6216V41.4414V41.6414H48.7928H55.4955ZM46.7748 41.5694H46.9748V41.3694V28.5405C46.9748 28.0744 47.3177 27.7315 47.7838 27.7315H56.5766C57.0427 27.7315 57.3856 28.0744 57.3856 28.5405V41.1694V41.3694V41.4414H57.5856V41.5694H64.9369H65.1369V41.3694V13.8378V13.6378H64.9369H37.2613H37.0613V13.8378V41.3694V41.5694H37.2613H46.7748ZM66.6829 41.4414V41.6414H66.8829H70.991C71.4571 41.6414 71.8 41.9843 71.8 42.4505V50.2342C71.8 50.7003 71.4571 51.0432 70.991 51.0432H1.00901C0.54289 51.0432 0.2 50.7003 0.2 50.2342V42.4505C0.2 41.9843 0.54289 41.6414 1.00901 41.6414H5.47748H5.67748V41.4414V13.5495V13.5023L5.65636 13.4601C5.61474 13.3769 5.57294 13.3142 5.53724 13.2606L5.53578 13.2584C5.50233 13.2082 5.47435 13.166 5.44662 13.1125C5.33838 12.7704 5.45012 12.4294 5.74649 12.1923C5.74651 12.1923 5.74654 12.1922 5.74656 12.1922L20.593 0.372686L20.5934 0.37239C20.8807 0.142537 21.3535 0.142537 21.6408 0.372391L21.6414 0.37285L35.9837 11.7602L36.1081 11.859L36.2325 11.7602L50.5748 0.372851L50.5754 0.37239C50.8627 0.142537 51.3355 0.142537 51.6228 0.37239L66.3976 12.1922C66.6979 12.4325 66.8087 12.7794 66.6931 13.1259L66.6829 13.1567V13.1892V41.4414Z" fill="white" stroke="#460226" stroke-width="0.4"/>
<path d="M18.018 17.1694H17.818V17.3694V23.6397V23.8397H18.018H24.2883H24.4883V23.6397V17.3694V17.1694H24.2883H18.018ZM25.2973 25.4577H17.009C16.5604 25.4577 16.2 25.0611 16.2 24.5766V16.2883C16.2 15.8222 16.5429 15.4793 17.009 15.4793H25.2973C25.7634 15.4793 26.1063 15.8222 26.1063 16.2883V24.6487C26.1063 25.1148 25.7634 25.4577 25.2973 25.4577Z" fill="#D5AC5C" stroke="#460226" stroke-width="0.4"/>
<path d="M55.2793 23.7676H55.4793V23.5676V17.2973V17.0973H55.2793H49.009H48.809V17.2973V23.5676V23.7676H49.009H55.2793ZM57.0988 16.2635L57.0973 16.2759V16.2883V24.5766C57.0973 25.0427 56.7544 25.3856 56.2883 25.3856H48C47.5339 25.3856 47.191 25.0427 47.191 24.5766V16.2883C47.191 15.8222 47.5339 15.4793 48 15.4793H56.2883C56.7807 15.4793 57.1518 15.8395 57.0988 16.2635Z" fill="#D5AC5C" stroke="#460226" stroke-width="0.4"/>
<path d="M20.1965 35.4595C20.1965 35.9256 19.7815 36.3405 19.3154 36.3405C18.8404 36.3405 18.4343 35.989 18.4343 35.4595C18.4343 34.9933 18.8493 34.5784 19.3154 34.5784C19.7815 34.5784 20.1965 34.9933 20.1965 35.4595Z" fill="white" stroke="#460226" stroke-width="0.4"/>
<path d="M51.4036 35.4595C51.4036 35.9256 50.9887 36.3405 50.5225 36.3405C50.0476 36.3405 49.6415 35.989 49.6415 35.4595C49.6415 34.9933 50.0564 34.5784 50.5225 34.5784C50.9887 34.5784 51.4036 34.9933 51.4036 35.4595Z" fill="white" stroke="#460226" stroke-width="0.4"/>
</svg>
