<svg width="52" height="45" viewBox="0 0 52 45" fill="none" xmlns="http://www.w3.org/2000/svg">
<path d="M0 29.04C0 22.16 1.16 16.12 3.48 10.92C5.88 5.72 9.52 2.08 14.4 0C16.24 1.84 17.84 3.36 19.2 4.56C20.64 5.68 22.2 6.68 23.88 7.56C19.8 9.08 16.8 10.88 14.88 12.96C13.04 15.04 11.84 17.48 11.28 20.28H23.4V44.28H0.12L0 29.04ZM27.6 29.04C27.6 22.16 28.76 16.12 31.08 10.92C33.48 5.72 37.12 2.08 42 0C43.84 1.84 45.44 3.36 46.8 4.56C48.24 5.68 49.8 6.68 51.48 7.56C47.4 9.08 44.4 10.88 42.48 12.96C40.64 15.04 39.44 17.48 38.88 20.28H49.8V44.28H27.72L27.6 29.04Z" fill="#011C37" fill-opacity="0.8"/>
</svg>
