<svg width="872" height="185" viewBox="0 0 872 185" fill="none" xmlns="http://www.w3.org/2000/svg">
<path opacity="0.1" d="M0 4.21053H28.166C61.207 4.21053 84.769 24.2763 84.769 53.4386C84.769 66.5482 79.8941 77.25 71.4984 85.2763C90.998 92.2324 103.185 107.215 103.185 128.886C103.185 159.386 79.0816 180.789 44.4157 180.789H9.91459e-05M198.616 4.21053H324.28V13.8421L242.49 180.789H202.678M463.665 4.21053H494.268C531.914 4.21053 558.725 26.6842 558.725 61.1974C558.725 95.1754 531.914 118.452 494.268 118.452H463.665V180.789H432.031M681.592 180.789H720.862L641.239 1L608.967 1M787.401 182.676C792.389 183.546 797.604 184 803.022 184C844.459 184 871 161.794 871 128.618C871 109.89 861.25 95.7105 845.271 87.9518C856.375 79.3904 863.146 67.0833 863.146 52.3684C863.146 20.5307 840.126 1 803.835 1C798.428 1 793.279 1.46755 788.401 2.37082" stroke="white" stroke-width="2"/>
</svg>
