<svg width="1024" height="195" viewBox="0 0 1024 195" fill="none" xmlns="http://www.w3.org/2000/svg">
<path opacity="0.3" d="M120 5.21053H148.166C181.207 5.21053 204.769 25.2763 204.769 54.4386C204.769 67.5482 199.894 78.25 191.498 86.2763C210.998 93.2324 223.185 108.215 223.185 129.886C223.185 160.386 199.082 181.789 164.416 181.789H120M318.616 5.21053H444.28V14.8421L362.49 181.789H322.678M583.665 5.21053H614.268C651.914 5.21053 678.725 27.6842 678.725 62.1974C678.725 96.1754 651.914 119.452 614.268 119.452H583.665V181.789H551.531M801.592 181.789H840.862L761.239 2H728.467M907.901 3.46507C912.927 2.50009 918.243 2 923.835 2C960.126 2 983.146 21.5307 983.146 53.3684C983.146 68.0833 976.375 80.3904 965.271 88.9518C981.25 96.7105 991 110.89 991 129.618C991 162.794 964.459 185 923.022 185C917.785 185 912.737 184.576 907.901 183.762" stroke="white" stroke-width="2"/>
<g opacity="0.6" filter="url(#filter0_d_41_4)">
<path d="M84 5.21053H112.166C145.207 5.21053 168.769 25.2763 168.769 54.4386C168.769 67.5482 163.894 78.25 155.498 86.2763C174.998 93.2324 187.185 108.215 187.185 129.886C187.185 160.386 163.082 181.789 128.416 181.789H84.0001M282.616 5.21053H408.28V14.8421L326.49 181.789H286.678M515.032 181.789H547.665V119.452H562.967H578.268C615.914 119.452 642.725 96.1754 642.725 62.1974C642.725 27.6842 615.914 5.21053 578.268 5.21053H547.665M765.592 181.789H804.862L725.239 2H691.467M823.378 40.5263C835.294 16.7149 857.502 2 887.835 2C924.126 2 947.146 21.5307 947.146 53.3684C947.146 68.0833 940.375 80.3904 929.271 88.9518C945.25 96.7105 955 110.89 955 129.618C955 162.794 928.459 185 887.022 185C854.523 185 829.336 168.68 816.607 144.066" stroke="white" stroke-width="2"/>
</g>
<path opacity="0.1" d="M152 5.21053H180.166C213.207 5.21053 236.769 25.2763 236.769 54.4386C236.769 67.5482 231.894 78.25 223.498 86.2763C242.998 93.2324 255.185 108.215 255.185 129.886C255.185 160.386 231.082 181.789 196.416 181.789H152M350.616 5.21053H476.28V14.8421L394.49 181.789H354.678M615.665 5.21053H646.268C683.914 5.21053 710.725 27.6842 710.725 62.1974C710.725 96.1754 683.914 119.452 646.268 119.452H615.665V181.789H584.031M833.592 181.789H872.862L793.239 2L760.967 2M939.401 183.676C944.389 184.546 949.604 185 955.022 185C996.459 185 1023 162.794 1023 129.618C1023 110.89 1013.25 96.7105 997.271 88.9518C1008.38 80.3904 1015.15 68.0833 1015.15 53.3684C1015.15 21.5307 992.126 2 955.835 2C950.428 2 945.279 2.46755 940.401 3.37082" stroke="white" stroke-width="2"/>
<path d="M127.335 86.2793C135.734 78.1515 140.611 67.3144 140.611 54.039C140.611 24.508 117.04 4.18855 83.9872 4.18855H20.5904V183H100.243C134.921 183 159.034 161.326 159.034 130.44C159.034 108.495 146.842 93.3233 127.335 86.2793ZM81.007 35.616C96.1789 35.616 104.307 43.4729 104.307 55.9355C104.307 68.1272 96.1789 76.5259 81.007 76.5259H55.8108V35.616H81.007ZM97.5335 151.573H55.8108V106.599H97.5335C113.518 106.599 123.001 115.268 123.001 129.086C123.001 143.174 113.518 151.573 97.5335 151.573ZM254.499 4.18855V37.2416H331.172L258.563 183H298.389L380.209 13.9419V4.18855H254.499ZM483.07 183H519.645V119.874H550.26C587.919 119.874 614.741 96.3035 614.741 61.8959C614.741 26.9464 587.919 4.18855 550.26 4.18855H483.07V183ZM519.645 87.9048V36.4288H550.26C567.328 36.4288 577.353 46.9949 577.353 61.8959C577.353 77.3387 567.328 87.9048 550.26 87.9048H519.645ZM737.652 183H776.937L697.284 0.937431H685.093L605.169 183H644.454L654.478 159.7H727.628L737.652 183ZM714.894 129.627H667.211L691.053 69.2109L714.894 129.627ZM901.391 88.9885C912.499 80.3189 919.272 67.8563 919.272 52.9553C919.272 20.7151 896.244 0.937431 859.94 0.937431C829.596 0.937431 807.38 15.8384 795.459 39.9508L820.926 58.1029C830.138 42.1182 842.6 34.8032 858.043 34.8032C874.299 34.8032 883.239 43.4729 883.239 55.9355C883.239 67.5853 875.111 76.5259 859.398 76.5259H838.536V106.599H862.107C881.885 106.599 891.096 115.81 891.096 128.273C891.096 143.716 876.466 152.385 858.856 152.385C840.975 152.385 825.803 143.987 814.153 126.376L788.686 144.799C801.419 169.725 826.616 186.251 859.127 186.251C900.578 186.251 927.129 163.764 927.129 130.169C927.129 111.204 917.376 96.8454 901.391 88.9885Z" fill="white"/>
<defs>
<filter id="filter0_d_41_4" x="80" y="1" width="880" height="193" filterUnits="userSpaceOnUse" color-interpolation-filters="sRGB">
<feFlood flood-opacity="0" result="BackgroundImageFix"/>
<feColorMatrix in="SourceAlpha" type="matrix" values="0 0 0 0 0 0 0 0 0 0 0 0 0 0 0 0 0 0 127 0" result="hardAlpha"/>
<feOffset dy="4"/>
<feGaussianBlur stdDeviation="2"/>
<feComposite in2="hardAlpha" operator="out"/>
<feColorMatrix type="matrix" values="0 0 0 0 0 0 0 0 0 0 0 0 0 0 0 0 0 0 0.25 0"/>
<feBlend mode="normal" in2="BackgroundImageFix" result="effect1_dropShadow_41_4"/>
<feBlend mode="normal" in="SourceGraphic" in2="effect1_dropShadow_41_4" result="shape"/>
</filter>
</defs>
</svg>
