<svg width="872" height="185" viewBox="0 0 872 185" fill="none" xmlns="http://www.w3.org/2000/svg">
<path opacity="0.3" d="M0 4.21053H28.166C61.207 4.21053 84.769 24.2763 84.769 53.4386C84.769 66.5482 79.8941 77.25 71.4984 85.2763C90.998 92.2324 103.185 107.215 103.185 128.886C103.185 159.386 79.0816 180.789 44.4157 180.789H9.91459e-05M198.616 4.21053H324.28V13.8421L242.49 180.789H202.678M463.665 4.21053H494.268C531.914 4.21053 558.725 26.6842 558.725 61.1974C558.725 95.1754 531.914 118.452 494.268 118.452H463.665V180.789H431.531M681.592 180.789H720.862L641.239 1H608.467M787.901 2.46507C792.927 1.50009 798.243 1 803.835 1C840.126 1 863.146 20.5307 863.146 52.3684C863.146 67.0833 856.375 79.3904 845.271 87.9518C861.25 95.7105 871 109.89 871 128.618C871 161.794 844.459 184 803.022 184C797.785 184 792.737 183.576 787.901 182.762" stroke="white" stroke-width="2"/>
</svg>
