<svg width="908" height="187" viewBox="0 0 908 187" fill="none" xmlns="http://www.w3.org/2000/svg">
<path d="M107.335 86.2793C115.734 78.1515 120.611 67.3144 120.611 54.039C120.611 24.508 97.0402 4.18855 63.9872 4.18855H0.590409V183H80.2428C114.921 183 139.034 161.326 139.034 130.44C139.034 108.495 126.842 93.3233 107.335 86.2793ZM61.007 35.616C76.1789 35.616 84.3067 43.4729 84.3067 55.9355C84.3067 68.1272 76.1789 76.5259 61.007 76.5259H35.8108V35.616H61.007ZM77.5335 151.573H35.8108V106.599H77.5335C93.5182 106.599 103.001 115.268 103.001 129.086C103.001 143.174 93.5182 151.573 77.5335 151.573ZM234.499 4.18855V37.2416H311.172L238.563 183H278.389L360.209 13.9419V4.18855H234.499ZM463.07 183H499.645V119.874H530.26C567.919 119.874 594.741 96.3035 594.741 61.8959C594.741 26.9464 567.919 4.18855 530.26 4.18855H463.07V183ZM499.645 87.9048V36.4288H530.26C547.328 36.4288 557.353 46.9949 557.353 61.8959C557.353 77.3387 547.328 87.9048 530.26 87.9048H499.645ZM717.652 183H756.937L677.284 0.937431H665.093L585.169 183H624.454L634.478 159.7H707.628L717.652 183ZM694.894 129.627H647.211L671.053 69.2109L694.894 129.627ZM881.391 88.9885C892.499 80.3189 899.272 67.8563 899.272 52.9553C899.272 20.7151 876.244 0.937431 839.94 0.937431C809.596 0.937431 787.38 15.8384 775.459 39.9508L800.926 58.1029C810.138 42.1182 822.6 34.8032 838.043 34.8032C854.299 34.8032 863.239 43.4729 863.239 55.9355C863.239 67.5853 855.111 76.5259 839.398 76.5259H818.536V106.599H842.107C861.885 106.599 871.096 115.81 871.096 128.273C871.096 143.716 856.466 152.385 838.856 152.385C820.975 152.385 805.803 143.987 794.153 126.376L768.686 144.799C781.419 169.725 806.616 186.251 839.127 186.251C880.578 186.251 907.129 163.764 907.129 130.169C907.129 111.204 897.376 96.8454 881.391 88.9885Z" fill="white"/>
</svg>
