<svg width="71" height="71" viewBox="0 0 71 71" fill="none" xmlns="http://www.w3.org/2000/svg">
<path d="M15.6082 34.8778H13.5152V31.8103L15.6082 31.816C16.4224 31.8504 17.0761 32.5213 17.0761 33.3469C17.0761 34.1726 16.4282 34.8434 15.6082 34.8778ZM15.8433 28.7256H10.1321V42.2742H13.5209V37.9625H15.849C18.4007 37.9625 20.465 35.8927 20.465 33.3469C20.4592 30.7954 18.3892 28.7256 15.8433 28.7256Z" fill="white"/>
<path d="M31.6236 38.1002C30.9183 38.9029 29.8976 39.4075 28.7565 39.4075C26.6291 39.4075 24.9089 37.6587 24.9089 35.4971C24.9089 33.3355 26.6291 31.5868 28.7565 31.5868C29.8976 31.5868 30.9183 32.0913 31.6236 32.894L34.1122 30.635C32.7876 29.1786 30.8781 28.2612 28.7565 28.2612C24.7598 28.2612 21.52 31.5008 21.52 35.4971C21.52 39.4935 24.7598 42.733 28.7565 42.733C30.8781 42.733 32.7876 41.8214 34.1122 40.365L31.6236 38.1002Z" fill="white"/>
<path d="M35.5 3.38286C17.793 3.38286 3.38314 17.7916 3.38314 35.4971C3.38314 53.2027 17.793 67.6171 35.5057 67.6171C53.2185 67.6171 67.6283 53.2084 67.6283 35.4971C67.6283 17.7858 53.2127 3.38286 35.5 3.38286ZM35.5 71C15.9237 71 0 55.0719 0 35.4971C0 15.9224 15.9237 0 35.5 0C55.0763 0 71 15.9224 71 35.4971C71.0057 55.0719 55.0763 71 35.5 71Z" fill="white"/>
<path d="M46.1255 28.7256H35.3052V31.925H39.0209V42.2742H42.4098V31.925H46.1255V28.7256Z" fill="white"/>
<path d="M58.9132 28.7256L51.4359 36.1851V28.7256H48.0527V42.2742H49.9622L57.4624 34.7975V42.2742H60.8513V28.7256H58.9132Z" fill="white"/>
</svg>
