<svg width="237" height="237" viewBox="0 0 237 237" fill="none" xmlns="http://www.w3.org/2000/svg">
<g filter="url(#filter0_f_35_1288)">
<circle cx="118.5" cy="118.5" r="58.5" fill="#D5AC5C"/>
</g>
<path d="M177.439 68.8994C179.632 68.8994 181.427 67.1047 181.427 64.9112V38.9882C181.427 36.7947 179.632 35 177.439 35H137.557C135.363 35 133.569 36.7947 133.569 38.9882V64.9112C133.569 67.1047 135.363 68.8994 137.557 68.8994H143.539V80.8639C143.539 82.858 146.131 83.6556 147.129 82.0603L157.498 68.8994H177.439Z" stroke="white" stroke-width="3" stroke-miterlimit="10"/>
<path d="M143.539 46.9645H171.456" stroke="white" stroke-width="3" stroke-miterlimit="10"/>
<path d="M143.539 54.9408H163.48" stroke="white" stroke-width="3" stroke-miterlimit="10"/>
<path d="M116.542 109.588C135.708 128.649 154.042 132.586 160.708 133C165.083 126.785 166.75 121.605 168 116.84C163.417 112.282 156.542 107.724 150.292 105.03L143 112.282C140.5 111.66 133.625 108.76 125.292 100.472C116.958 92.1851 114.25 85.3481 113.417 82.8619L120.708 75.6105C118 69.395 113.417 62.7652 108.833 58C104.667 59.6575 99.4583 61.5221 93 65.6657C93.4167 72.5028 97.5833 90.7348 116.542 109.588Z" stroke="white" stroke-width="3" stroke-miterlimit="10"/>
<defs>
<filter id="filter0_f_35_1288" x="0" y="0" width="237" height="237" filterUnits="userSpaceOnUse" color-interpolation-filters="sRGB">
<feFlood flood-opacity="0" result="BackgroundImageFix"/>
<feBlend mode="normal" in="SourceGraphic" in2="BackgroundImageFix" result="shape"/>
<feGaussianBlur stdDeviation="30" result="effect1_foregroundBlur_35_1288"/>
</filter>
</defs>
</svg>
