<svg width="237" height="237" viewBox="0 0 237 237" fill="none" xmlns="http://www.w3.org/2000/svg">
<g filter="url(#filter0_f_35_1312)">
<circle cx="118.5" cy="118.5" r="58.5" fill="#D5AC5C"/>
</g>
<path d="M139.418 45C138.967 45 138.533 45.1807 138.217 45.497L110.977 72.7391C96.341 87.3767 96.341 111.393 110.977 126.022C125.613 140.659 149.627 140.659 164.255 126.022L191.494 98.7796C192.154 98.12 192.154 97.0448 191.494 96.3852L178.15 83.0306C177.49 82.371 176.415 82.371 175.756 83.0306L148.507 110.273C142.309 116.471 132.922 116.471 126.725 110.273C120.527 104.074 120.527 94.6865 126.725 88.4881L153.964 61.2459C154.28 60.9297 154.461 60.496 154.461 60.0442C154.461 59.5924 154.28 59.1677 153.964 58.8425L140.611 45.497C140.295 45.1807 139.87 45 139.418 45ZM139.418 49.0931L150.377 60.0532L124.33 86.0937C116.895 93.53 116.895 105.24 124.33 112.667C131.766 120.104 143.475 120.104 150.901 112.667L176.948 86.6178L187.907 97.5869L161.86 123.636C148.534 136.964 126.697 136.964 113.371 123.636C100.045 110.309 100.045 88.461 113.371 75.1426L139.418 49.0931Z" fill="white"/>
<path d="M131.883 52.5356C131.432 52.5356 130.998 52.7164 130.682 53.0326C130.366 53.3488 130.185 53.7826 130.185 54.2343C130.185 54.6861 130.366 55.1108 130.682 55.4361L144.035 68.7906C144.694 69.4502 145.77 69.4502 146.429 68.7906C146.745 68.4744 146.926 68.0407 146.926 67.5889C146.926 67.1371 146.745 66.7124 146.429 66.3872L133.085 53.0326C132.769 52.7073 132.335 52.5356 131.883 52.5356Z" fill="white"/>
<path d="M169.422 90.0693C168.971 90.0693 168.537 90.25 168.221 90.5663C167.905 90.8825 167.724 91.3162 167.724 91.768C167.724 92.2198 167.905 92.6445 168.221 92.9698L181.574 106.324C182.234 106.984 183.309 106.984 183.968 106.324C184.284 106.008 184.465 105.574 184.465 105.123C184.465 104.671 184.284 104.246 183.968 103.921L170.615 90.5663C170.299 90.25 169.865 90.0693 169.422 90.0693Z" fill="white"/>
<defs>
<filter id="filter0_f_35_1312" x="0" y="0" width="237" height="237" filterUnits="userSpaceOnUse" color-interpolation-filters="sRGB">
<feFlood flood-opacity="0" result="BackgroundImageFix"/>
<feBlend mode="normal" in="SourceGraphic" in2="BackgroundImageFix" result="shape"/>
<feGaussianBlur stdDeviation="30" result="effect1_foregroundBlur_35_1312"/>
</filter>
</defs>
</svg>
